{
  "source": "C:\\Users\\Peter\\Desktop\\stuff\\MIUN\\quantitative_research\\video_compression\\videos\\BVI-HD\\BVI-HD_CDVL_videos\\ORIG\\Typing_1920x1080_60fps.mp4",
  "output": "C:\\Users\\Peter\\Desktop\\stuff\\MIUN\\quantitative_research\\video_compression\\compressed_videos\\BVI-HD\\hevc\\1.5\\Typing_1920x1080_60fps_hevc.mp4",
  "codec": "hevc",
  "ok": "Input #0, mov,mp4,m4a,3gp,3g2,mj2, from 'C:\\Users\\Peter\\Desktop\\stuff\\MIUN\\quantitative_research\\video_compression\\videos\\BVI-HD\\BVI-HD_CDVL_videos\\ORIG\\Typing_1920x1080_60fps.mp4':\n  Metadata:\n    major_brand     : isom\n    minor_version   : 512\n    compatible_brands: isomiso2avc1mp41\n    encoder         : Lavf54.28.101\n  Duration: 00:00:05.00, start: 0.000000, bitrate: 203453 kb/s\n  Stream #0:0[0x1](und): Video: h264 (High 4:4:4 Predictive) (avc1 / 0x31637661), yuv420p(progressive), 1920x1080, 203448 kb/s, 60 fps, 60 tbr, 60 tbn (default)\n    Metadata:\n      handler_name    : VideoHandler\n      vendor_id       : [0][0][0][0]\n[out#0/mp4 @ 00000213a65baa40] Codec AVOption b:a (set bitrate (in bits/s)) has not been used for any stream. The most likely reason is either wrong type (e.g. a video option with no video streams) or that it is a private option of some decoder which was not actually used for any stream.\nStream mapping:\n  Stream #0:0 -> #0:0 (h264 (native) -> hevc (libx265))\nPress [q] to stop, [?] for help\n[libx265 @ 00000213a6bf5700] Unknown option: \"aq-mode.\nx265 [info]: HEVC encoder version 4.1+190-8f11c33ac\nx265 [info]: build info [Windows][GCC 15.1.0][64 bit] 10bit\nx265 [info]: using cpu capabilities: MMX2 SSE2Fast LZCNT SSSE3 SSE4.2 AVX FMA3 BMI2 AVX2\nx265 [info]: Main 10 profile, Level-4.1 (Main tier)\nx265 [info]: Thread pool created using 12 threads\nx265 [info]: Slices                              : 1\nx265 [info]: frame threads / pool features       : 3 / wpp(17 rows)\nx265 [info]: Coding QT: max CU size, min CU size : 64 / 8\nx265 [info]: Residual QT: max TU size, max depth : 32 / 1 inter / 1 intra\nx265 [info]: ME / range / subpel / merge         : star / 57 / 3 / 3\nx265 [info]: Keyframe min / max / scenecut / bias  : 25 / 250 / 40 / 5.00 \nx265 [info]: Lookahead / bframes / badapt        : 25 / 4 / 2\nx265 [info]: b-pyramid / weightp / weightb       : 1 / 1 / 0\nx265 [info]: References / ref-limit  cu / depth  : 4 / on / on\nx265 [info]: AQ: mode / str / qg-size / cu-tree  : 2 / 1.0 / 32 / 1\nx265 [info]: Rate Control / qCompress            : ABR-1500 kbps / 0.60\nx265 [info]: VBV/HRD buffer / max-rate / init    : 1500 / 1500 / 0.750\nx265 [info]: tools: rect limit-modes rd=4 psy-rd=2.00 rdoq=2 psy-rdoq=1.00\nx265 [info]: tools: rskip mode=1 signhide tmvp strong-intra-smoothing lslices=4\nx265 [info]: tools: deblock sao dhdr10-info\nOutput #0, mp4, to 'C:\\Users\\Peter\\Desktop\\stuff\\MIUN\\quantitative_research\\video_compression\\compressed_videos\\BVI-HD\\hevc\\1.5\\Typing_1920x1080_60fps_hevc.mp4':\n  Metadata:\n    major_brand     : isom\n    minor_version   : 512\n    compatible_brands: isomiso2avc1mp41\n    encoder         : Lavf62.3.100\n  Stream #0:0(und): Video: hevc (hev1 / 0x31766568), yuv420p10le(tv, progressive), 1920x1080, q=2-31, 1500 kb/s, 60 fps, 15360 tbn (default)\n    Metadata:\n      encoder         : Lavc62.11.100 libx265\n      handler_name    : VideoHandler\n      vendor_id       : [0][0][0][0]\n    Side data:\n      cpb: bitrate max/min/avg: 1500000/0/1500000 buffer size: 1500000 vbv_delay: N/A\nframe=    0 fps=0.0 q=0.0 size=       0KiB time=N/A bitrate=N/A speed=N/A elapsed=0:00:00.50    \nframe=    0 fps=0.0 q=0.0 size=       0KiB time=N/A bitrate=N/A speed=N/A elapsed=0:00:01.08    \nframe=    0 fps=0.0 q=0.0 size=       0KiB time=N/A bitrate=N/A speed=N/A elapsed=0:00:01.60    \nframe=    0 fps=0.0 q=0.0 size=       0KiB time=N/A bitrate=N/A speed=N/A elapsed=0:00:02.16    \nframe=    0 fps=0.0 q=0.0 size=       0KiB time=N/A bitrate=N/A speed=N/A elapsed=0:00:02.68    \nframe=    0 fps=0.0 q=0.0 size=       0KiB time=N/A bitrate=N/A speed=N/A elapsed=0:00:03.20    \nframe=    0 fps=0.0 q=0.0 size=       0KiB time=N/A bitrate=N/A speed=N/A elapsed=0:00:03.71    \nframe=    0 fps=0.0 q=0.0 size=       0KiB time=N/A bitrate=N/A speed=N/A elapsed=0:00:04.24    \nframe=    0 fps=0.0 q=0.0 size=       0KiB time=N/A bitrate=N/A speed=N/A elapsed=0:00:04.75    \nframe=    0 fps=0.0 q=0.0 size=       0KiB time=N/A bitrate=N/A speed=N/A elapsed=0:00:05.27    \nframe=    0 fps=0.0 q=0.0 size=       0KiB time=N/A bitrate=N/A speed=N/A elapsed=0:00:05.80    \nframe=    0 fps=0.0 q=0.0 size=       0KiB time=N/A bitrate=N/A speed=N/A elapsed=0:00:06.31    \nframe=    1 fps=0.1 q=39.9 size=       0KiB time=-00:00:00.01 bitrate=N/A speed=N/A elapsed=0:00:06.83    \nframe=    2 fps=0.3 q=46.1 size=       0KiB time=00:00:00.00 bitrate=N/A speed=   0x elapsed=0:00:07.35    \nframe=    3 fps=0.4 q=47.6 size=       0KiB time=00:00:00.01 bitrate=  21.1kbits/s speed=0.00212x elapsed=0:00:07.87    \nframe=    4 fps=0.5 q=48.4 size=       0KiB time=00:00:00.03 bitrate=  10.6kbits/s speed=0.00398x elapsed=0:00:08.38    \nframe=    4 fps=0.4 q=48.4 size=       0KiB time=00:00:00.03 bitrate=  10.6kbits/s speed=0.00374x elapsed=0:00:08.90    \nframe=    4 fps=0.4 q=48.4 size=       0KiB time=00:00:00.03 bitrate=  10.6kbits/s speed=0.00354x elapsed=0:00:09.41    \nframe=    4 fps=0.4 q=48.4 size=       0KiB time=00:00:00.03 bitrate=  10.6kbits/s speed=0.00335x elapsed=0:00:09.94    \nframe=    5 fps=0.5 q=45.4 size=       0KiB time=00:00:00.05 bitrate=   7.0kbits/s speed=0.00478x elapsed=0:00:10.46    \nframe=    5 fps=0.5 q=45.4 size=       0KiB time=00:00:00.05 bitrate=   7.0kbits/s speed=0.00455x elapsed=0:00:10.98    \nframe=    5 fps=0.4 q=45.4 size=       0KiB time=00:00:00.05 bitrate=   7.0kbits/s speed=0.00435x elapsed=0:00:11.50    \nframe=    5 fps=0.4 q=45.4 size=       0KiB time=00:00:00.05 bitrate=   7.0kbits/s speed=0.00416x elapsed=0:00:12.02    \nframe=    5 fps=0.4 q=45.4 size=       0KiB time=00:00:00.05 bitrate=   7.0kbits/s speed=0.00395x elapsed=0:00:12.64    \nframe=    6 fps=0.5 q=44.3 size=       0KiB time=00:00:00.06 bitrate=   5.3kbits/s speed=0.00504x elapsed=0:00:13.22    \nframe=    6 fps=0.4 q=44.3 size=       0KiB time=00:00:00.06 bitrate=   5.3kbits/s speed=0.00485x elapsed=0:00:13.75    \nframe=    6 fps=0.4 q=44.3 size=       0KiB time=00:00:00.06 bitrate=   5.3kbits/s speed=0.00465x elapsed=0:00:14.33    \nframe=    7 fps=0.5 q=36.5 size=       0KiB time=00:00:00.08 bitrate=   4.2kbits/s speed=0.00559x elapsed=0:00:14.90    \nframe=    7 fps=0.5 q=36.5 size=       0KiB time=00:00:00.08 bitrate=   4.2kbits/s speed=0.0054x elapsed=0:00:15.42    \nframe=    7 fps=0.4 q=36.5 size=       0KiB time=00:00:00.08 bitrate=   4.2kbits/s speed=0.00522x elapsed=0:00:15.95    \nframe=    7 fps=0.4 q=36.5 size=       0KiB time=00:00:00.08 bitrate=   4.2kbits/s speed=0.00505x elapsed=0:00:16.50    \nframe=    8 fps=0.5 q=39.8 size=       0KiB time=00:00:00.10 bitrate=   3.5kbits/s speed=0.00585x elapsed=0:00:17.10    \nframe=    8 fps=0.5 q=39.8 size=       0KiB time=00:00:00.10 bitrate=   3.5kbits/s speed=0.00567x elapsed=0:00:17.62    \nframe=    8 fps=0.4 q=39.8 size=       0KiB time=00:00:00.10 bitrate=   3.5kbits/s speed=0.00551x elapsed=0:00:18.13    \nframe=    8 fps=0.4 q=39.8 size=       0KiB time=00:00:00.10 bitrate=   3.5kbits/s speed=0.00535x elapsed=0:00:18.68    \nframe=    8 fps=0.4 q=39.8 size=       0KiB time=00:00:00.10 bitrate=   3.5kbits/s speed=0.0052x elapsed=0:00:19.21    \nframe=    8 fps=0.4 q=39.8 size=       0KiB time=00:00:00.10 bitrate=   3.5kbits/s speed=0.00507x elapsed=0:00:19.73    \nframe=    8 fps=0.4 q=39.8 size=       0KiB time=00:00:00.10 bitrate=   3.5kbits/s speed=0.00494x elapsed=0:00:20.25    \nframe=    9 fps=0.4 q=40.6 size=       0KiB time=00:00:00.11 bitrate=   3.0kbits/s speed=0.00561x elapsed=0:00:20.79    \nframe=    9 fps=0.4 q=40.6 size=       0KiB time=00:00:00.11 bitrate=   3.0kbits/s speed=0.00547x elapsed=0:00:21.34    \nframe=    9 fps=0.4 q=40.6 size=       0KiB time=00:00:00.11 bitrate=   3.0kbits/s speed=0.00533x elapsed=0:00:21.89    \nframe=    9 fps=0.4 q=40.6 size=       0KiB time=00:00:00.11 bitrate=   3.0kbits/s speed=0.00519x elapsed=0:00:22.48    \nframe=   10 fps=0.4 q=41.5 size=       0KiB time=00:00:00.13 bitrate=   2.6kbits/s speed=0.00579x elapsed=0:00:23.02    \nframe=   10 fps=0.4 q=41.5 size=       0KiB time=00:00:00.13 bitrate=   2.6kbits/s speed=0.00566x elapsed=0:00:23.56    \nframe=   10 fps=0.4 q=41.5 size=       0KiB time=00:00:00.13 bitrate=   2.6kbits/s speed=0.00552x elapsed=0:00:24.14    \nframe=   10 fps=0.4 q=41.5 size=       0KiB time=00:00:00.13 bitrate=   2.6kbits/s speed=0.0054x elapsed=0:00:24.71    \nframe=   11 fps=0.4 q=36.1 size=       0KiB time=00:00:00.15 bitrate=   2.3kbits/s speed=0.00593x elapsed=0:00:25.27    \nframe=   12 fps=0.5 q=41.2 size=       0KiB time=00:00:00.16 bitrate=   2.1kbits/s speed=0.00646x elapsed=0:00:25.80    \nframe=   12 fps=0.5 q=41.2 size=       0KiB time=00:00:00.16 bitrate=   2.1kbits/s speed=0.00632x elapsed=0:00:26.36    \nframe=   12 fps=0.4 q=41.2 size=       0KiB time=00:00:00.16 bitrate=   2.1kbits/s speed=0.0062x elapsed=0:00:26.90    \nframe=   12 fps=0.4 q=41.2 size=       0KiB time=00:00:00.16 bitrate=   2.1kbits/s speed=0.00607x elapsed=0:00:27.45    \nframe=   12 fps=0.4 q=41.2 size=       0KiB time=00:00:00.16 bitrate=   2.1kbits/s speed=0.00595x elapsed=0:00:27.99    \nframe=   12 fps=0.4 q=41.2 size=       0KiB time=00:00:00.16 bitrate=   2.1kbits/s speed=0.00584x elapsed=0:00:28.53    \nframe=   12 fps=0.4 q=41.2 size=       0KiB time=00:00:00.16 bitrate=   2.1kbits/s speed=0.00572x elapsed=0:00:29.11    \nframe=   12 fps=0.4 q=41.2 size=       0KiB time=00:00:00.16 bitrate=   2.1kbits/s speed=0.00562x elapsed=0:00:29.68    \nframe=   12 fps=0.4 q=41.2 size=       0KiB time=00:00:00.16 bitrate=   2.1kbits/s speed=0.00551x elapsed=0:00:30.23    \nframe=   13 fps=0.4 q=41.6 size=       0KiB time=00:00:00.18 bitrate=   1.9kbits/s speed=0.00596x elapsed=0:00:30.75    \nframe=   13 fps=0.4 q=41.6 size=       0KiB time=00:00:00.18 bitrate=   1.9kbits/s speed=0.00586x elapsed=0:00:31.28    \nframe=   14 fps=0.4 q=41.4 size=       0KiB time=00:00:00.20 bitrate=   1.8kbits/s speed=0.00629x elapsed=0:00:31.80    \nframe=   14 fps=0.4 q=41.4 size=       0KiB time=00:00:00.20 bitrate=   1.8kbits/s speed=0.00617x elapsed=0:00:32.39    \nframe=   15 fps=0.5 q=35.4 size=       0KiB time=00:00:00.21 bitrate=   1.6kbits/s speed=0.00657x elapsed=0:00:32.99    \nframe=   16 fps=0.5 q=40.1 size=       0KiB time=00:00:00.23 bitrate=   1.5kbits/s speed=0.00695x elapsed=0:00:33.56    \nframe=   16 fps=0.5 q=40.1 size=       0KiB time=00:00:00.23 bitrate=   1.5kbits/s speed=0.00685x elapsed=0:00:34.08    \nframe=   16 fps=0.5 q=40.1 size=       0KiB time=00:00:00.23 bitrate=   1.5kbits/s speed=0.00673x elapsed=0:00:34.64    \nframe=   16 fps=0.5 q=40.1 size=       0KiB time=00:00:00.23 bitrate=   1.5kbits/s speed=0.00663x elapsed=0:00:35.21    \nframe=   16 fps=0.4 q=40.1 size=       0KiB time=00:00:00.23 bitrate=   1.5kbits/s speed=0.00652x elapsed=0:00:35.79    \nframe=   16 fps=0.4 q=40.1 size=       0KiB time=00:00:00.23 bitrate=   1.5kbits/s speed=0.00643x elapsed=0:00:36.30    \nframe=   17 fps=0.5 q=40.3 size=       0KiB time=00:00:00.25 bitrate=   1.4kbits/s speed=0.00679x elapsed=0:00:36.82    \nframe=   17 fps=0.5 q=40.3 size=       0KiB time=00:00:00.25 bitrate=   1.4kbits/s speed=0.00669x elapsed=0:00:37.35    \nframe=   17 fps=0.4 q=40.3 size=       0KiB time=00:00:00.25 bitrate=   1.4kbits/s speed=0.0066x elapsed=0:00:37.87    \nframe=   18 fps=0.5 q=40.2 size=       0KiB time=00:00:00.26 bitrate=   1.3kbits/s speed=0.00694x elapsed=0:00:38.44    \nframe=   18 fps=0.5 q=40.2 size=       0KiB time=00:00:00.26 bitrate=   1.3kbits/s speed=0.00684x elapsed=0:00:38.98    \nframe=   18 fps=0.5 q=40.2 size=       0KiB time=00:00:00.26 bitrate=   1.3kbits/s speed=0.00675x elapsed=0:00:39.49    \nframe=   19 fps=0.5 q=33.8 size=       0KiB time=00:00:00.28 bitrate=   1.2kbits/s speed=0.00708x elapsed=0:00:40.03    \nframe=   19 fps=0.5 q=33.8 size=       0KiB time=00:00:00.28 bitrate=   1.2kbits/s speed=0.00698x elapsed=0:00:40.60    \nframe=   20 fps=0.5 q=39.7 size=       0KiB time=00:00:00.30 bitrate=   1.2kbits/s speed=0.00729x elapsed=0:00:41.13    \nframe=   20 fps=0.5 q=39.7 size=       0KiB time=00:00:00.30 bitrate=   1.2kbits/s speed=0.0072x elapsed=0:00:41.65    \nframe=   20 fps=0.5 q=39.7 size=       0KiB time=00:00:00.30 bitrate=   1.2kbits/s speed=0.00711x elapsed=0:00:42.18    \nframe=   20 fps=0.5 q=39.7 size=       0KiB time=00:00:00.30 bitrate=   1.2kbits/s speed=0.00702x elapsed=0:00:42.71    \nframe=   20 fps=0.5 q=39.7 size=       0KiB time=00:00:00.30 bitrate=   1.2kbits/s speed=0.00694x elapsed=0:00:43.25    \nframe=   20 fps=0.5 q=39.7 size=       0KiB time=00:00:00.30 bitrate=   1.2kbits/s speed=0.00686x elapsed=0:00:43.76    \nframe=   21 fps=0.5 q=40.4 size=       0KiB time=00:00:00.31 bitrate=   1.1kbits/s speed=0.00715x elapsed=0:00:44.28    \nframe=   21 fps=0.5 q=40.4 size=       0KiB time=00:00:00.31 bitrate=   1.1kbits/s speed=0.00706x elapsed=0:00:44.85    \nframe=   21 fps=0.5 q=40.4 size=       0KiB time=00:00:00.31 bitrate=   1.1kbits/s speed=0.00697x elapsed=0:00:45.42    \nframe=   21 fps=0.5 q=40.4 size=       0KiB time=00:00:00.31 bitrate=   1.1kbits/s speed=0.00689x elapsed=0:00:45.98    \nframe=   21 fps=0.5 q=40.4 size=       0KiB time=00:00:00.31 bitrate=   1.1kbits/s speed=0.0068x elapsed=0:00:46.54    \nframe=   22 fps=0.5 q=40.2 size=       0KiB time=00:00:00.33 bitrate=   1.1kbits/s speed=0.00708x elapsed=0:00:47.09    \nframe=   22 fps=0.5 q=40.2 size=       0KiB time=00:00:00.33 bitrate=   1.1kbits/s speed=0.007x elapsed=0:00:47.65    \nframe=   22 fps=0.5 q=40.2 size=       0KiB time=00:00:00.33 bitrate=   1.1kbits/s speed=0.00691x elapsed=0:00:48.21    \nframe=   22 fps=0.5 q=40.2 size=       0KiB time=00:00:00.33 bitrate=   1.1kbits/s speed=0.00684x elapsed=0:00:48.75    \nframe=   23 fps=0.5 q=32.1 size=       0KiB time=00:00:00.35 bitrate=   1.0kbits/s speed=0.0071x elapsed=0:00:49.29    \nframe=   23 fps=0.5 q=32.1 size=       0KiB time=00:00:00.35 bitrate=   1.0kbits/s speed=0.00702x elapsed=0:00:49.83    \nframe=   23 fps=0.5 q=32.1 size=       0KiB time=00:00:00.35 bitrate=   1.0kbits/s speed=0.00695x elapsed=0:00:50.34    \nframe=   24 fps=0.5 q=38.8 size=       0KiB time=00:00:00.36 bitrate=   1.0kbits/s speed=0.00721x elapsed=0:00:50.88    \nframe=   24 fps=0.5 q=38.8 size=       0KiB time=00:00:00.36 bitrate=   1.0kbits/s speed=0.00713x elapsed=0:00:51.40    \nframe=   25 fps=0.5 q=38.9 size=       0KiB time=00:00:00.38 bitrate=   0.9kbits/s speed=0.00738x elapsed=0:00:51.92    \nframe=   25 fps=0.5 q=38.9 size=       0KiB time=00:00:00.38 bitrate=   0.9kbits/s speed=0.00731x elapsed=0:00:52.46    \nframe=   25 fps=0.5 q=38.9 size=       0KiB time=00:00:00.38 bitrate=   0.9kbits/s speed=0.00723x elapsed=0:00:52.98    \nframe=   26 fps=0.5 q=39.1 size=       0KiB time=00:00:00.40 bitrate=   0.9kbits/s speed=0.00748x elapsed=0:00:53.50    \nframe=   26 fps=0.5 q=39.1 size=       0KiB time=00:00:00.40 bitrate=   0.9kbits/s speed=0.0074x elapsed=0:00:54.02    \nframe=   27 fps=0.5 q=39.3 size=       0KiB time=00:00:00.41 bitrate=   0.8kbits/s speed=0.00764x elapsed=0:00:54.54    \nframe=   27 fps=0.5 q=39.3 size=       0KiB time=00:00:00.41 bitrate=   0.8kbits/s speed=0.00757x elapsed=0:00:55.05    \nframe=   27 fps=0.5 q=39.3 size=       0KiB time=00:00:00.41 bitrate=   0.8kbits/s speed=0.0075x elapsed=0:00:55.58    \nframe=   27 fps=0.5 q=39.3 size=       0KiB time=00:00:00.41 bitrate=   0.8kbits/s speed=0.00743x elapsed=0:00:56.11    \nframe=   28 fps=0.5 q=32.4 size=       0KiB time=00:00:00.43 bitrate=   0.8kbits/s speed=0.00765x elapsed=0:00:56.63    \nframe=   29 fps=0.5 q=38.2 size=       0KiB time=00:00:00.45 bitrate=   0.8kbits/s speed=0.00787x elapsed=0:00:57.18    \nframe=   29 fps=0.5 q=38.2 size=       0KiB time=00:00:00.45 bitrate=   0.8kbits/s speed=0.0078x elapsed=0:00:57.71    \nframe=   30 fps=0.5 q=39.4 size=       0KiB time=00:00:00.46 bitrate=   0.8kbits/s speed=0.00801x elapsed=0:00:58.22    \nframe=   30 fps=0.5 q=39.4 size=       0KiB time=00:00:00.46 bitrate=   0.8kbits/s speed=0.00794x elapsed=0:00:58.76    \nframe=   30 fps=0.5 q=39.4 size=       0KiB time=00:00:00.46 bitrate=   0.8kbits/s speed=0.00787x elapsed=0:00:59.32    \nframe=   30 fps=0.5 q=39.4 size=       0KiB time=00:00:00.46 bitrate=   0.8kbits/s speed=0.0078x elapsed=0:00:59.85    \nframe=   31 fps=0.5 q=38.1 size=       0KiB time=00:00:00.48 bitrate=   0.7kbits/s speed=0.008x elapsed=0:01:00.39    \nframe=   31 fps=0.5 q=38.1 size=       0KiB time=00:00:00.48 bitrate=   0.7kbits/s speed=0.00793x elapsed=0:01:00.94    \nframe=   31 fps=0.5 q=38.1 size=       0KiB time=00:00:00.48 bitrate=   0.7kbits/s speed=0.00786x elapsed=0:01:01.46    \nframe=   32 fps=0.5 q=38.1 size=       0KiB time=00:00:00.50 bitrate=   0.7kbits/s speed=0.00807x elapsed=0:01:01.98    \nframe=   33 fps=0.5 q=30.8 size=       0KiB time=00:00:00.51 bitrate=   0.7kbits/s speed=0.00827x elapsed=0:01:02.49    \nframe=   33 fps=0.5 q=30.8 size=       0KiB time=00:00:00.51 bitrate=   0.7kbits/s speed=0.0082x elapsed=0:01:03.00    \nframe=   34 fps=0.5 q=35.5 size=       0KiB time=00:00:00.53 bitrate=   0.7kbits/s speed=0.00839x elapsed=0:01:03.53    \nframe=   34 fps=0.5 q=35.5 size=       0KiB time=00:00:00.53 bitrate=   0.7kbits/s speed=0.00833x elapsed=0:01:04.05    \nframe=   34 fps=0.5 q=35.5 size=       0KiB time=00:00:00.53 bitrate=   0.7kbits/s speed=0.00825x elapsed=0:01:04.61    \nframe=   34 fps=0.5 q=35.5 size=       0KiB time=00:00:00.53 bitrate=   0.7kbits/s speed=0.00819x elapsed=0:01:05.14    \nframe=   35 fps=0.5 q=38.2 size=       0KiB time=00:00:00.55 bitrate=   0.6kbits/s speed=0.00838x elapsed=0:01:05.65    \nframe=   35 fps=0.5 q=38.2 size=       0KiB time=00:00:00.55 bitrate=   0.6kbits/s speed=0.0083x elapsed=0:01:06.22    \nframe=   35 fps=0.5 q=38.2 size=       0KiB time=00:00:00.55 bitrate=   0.6kbits/s speed=0.00824x elapsed=0:01:06.74    \nframe=   35 fps=0.5 q=38.2 size=       0KiB time=00:00:00.55 bitrate=   0.6kbits/s speed=0.00817x elapsed=0:01:07.29    \nframe=   35 fps=0.5 q=38.2 size=       0KiB time=00:00:00.55 bitrate=   0.6kbits/s speed=0.00811x elapsed=0:01:07.83    \nframe=   35 fps=0.5 q=38.2 size=       0KiB time=00:00:00.55 bitrate=   0.6kbits/s speed=0.00804x elapsed=0:01:08.40    \nframe=   36 fps=0.5 q=37.3 size=       0KiB time=00:00:00.56 bitrate=   0.6kbits/s speed=0.00822x elapsed=0:01:08.93    \nframe=   36 fps=0.5 q=37.3 size=       0KiB time=00:00:00.56 bitrate=   0.6kbits/s speed=0.00816x elapsed=0:01:09.46    \nframe=   37 fps=0.5 q=37.3 size=       0KiB time=00:00:00.58 bitrate=   0.6kbits/s speed=0.00834x elapsed=0:01:09.98    \nframe=   37 fps=0.5 q=37.3 size=       0KiB time=00:00:00.58 bitrate=   0.6kbits/s speed=0.00827x elapsed=0:01:10.49    \nframe=   38 fps=0.5 q=30.3 size=       0KiB time=00:00:00.60 bitrate=   0.6kbits/s speed=0.00844x elapsed=0:01:11.05    \nframe=   38 fps=0.5 q=30.3 size=       0KiB time=00:00:00.60 bitrate=   0.6kbits/s speed=0.00838x elapsed=0:01:11.60    \nframe=   38 fps=0.5 q=30.3 size=       0KiB time=00:00:00.60 bitrate=   0.6kbits/s speed=0.00832x elapsed=0:01:12.13    \nframe=   38 fps=0.5 q=30.3 size=       0KiB time=00:00:00.60 bitrate=   0.6kbits/s speed=0.00826x elapsed=0:01:12.66    \nframe=   39 fps=0.5 q=35.9 size=       0KiB time=00:00:00.61 bitrate=   0.6kbits/s speed=0.00842x elapsed=0:01:13.21    \nframe=   40 fps=0.5 q=37.2 size=       0KiB time=00:00:00.63 bitrate=   0.6kbits/s speed=0.00858x elapsed=0:01:13.80    \nframe=   40 fps=0.5 q=37.2 size=       0KiB time=00:00:00.63 bitrate=   0.6kbits/s speed=0.00852x elapsed=0:01:14.36    \nframe=   40 fps=0.5 q=37.2 size=       0KiB time=00:00:00.63 bitrate=   0.6kbits/s speed=0.00845x elapsed=0:01:14.95    \nframe=   40 fps=0.5 q=37.2 size=       0KiB time=00:00:00.63 bitrate=   0.6kbits/s speed=0.00839x elapsed=0:01:15.52    \nframe=   40 fps=0.5 q=37.2 size=       0KiB time=00:00:00.63 bitrate=   0.6kbits/s speed=0.00832x elapsed=0:01:16.11    \nframe=   40 fps=0.5 q=37.2 size=       0KiB time=00:00:00.63 bitrate=   0.6kbits/s speed=0.00826x elapsed=0:01:16.65    \nframe=   40 fps=0.5 q=37.2 size=       0KiB time=00:00:00.63 bitrate=   0.6kbits/s speed=0.0082x elapsed=0:01:17.20    \nframe=   40 fps=0.5 q=37.2 size=       0KiB time=00:00:00.63 bitrate=   0.6kbits/s speed=0.00814x elapsed=0:01:17.75    \nframe=   41 fps=0.5 q=36.3 size=       0KiB time=00:00:00.65 bitrate=   0.5kbits/s speed=0.0083x elapsed=0:01:18.27    \nframe=   41 fps=0.5 q=36.3 size=       0KiB time=00:00:00.65 bitrate=   0.5kbits/s speed=0.00825x elapsed=0:01:18.80    \nframe=   41 fps=0.5 q=36.3 size=       0KiB time=00:00:00.65 bitrate=   0.5kbits/s speed=0.00819x elapsed=0:01:19.35    \nframe=   41 fps=0.5 q=36.3 size=       0KiB time=00:00:00.65 bitrate=   0.5kbits/s speed=0.00814x elapsed=0:01:19.89    \nframe=   42 fps=0.5 q=36.5 size=       0KiB time=00:00:00.66 bitrate=   0.5kbits/s speed=0.00829x elapsed=0:01:20.45    \nframe=   42 fps=0.5 q=36.5 size=       0KiB time=00:00:00.66 bitrate=   0.5kbits/s speed=0.00823x elapsed=0:01:21.00    \nframe=   42 fps=0.5 q=36.5 size=       0KiB time=00:00:00.66 bitrate=   0.5kbits/s speed=0.00818x elapsed=0:01:21.53    \nframe=   43 fps=0.5 q=29.6 size=       0KiB time=00:00:00.68 bitrate=   0.5kbits/s speed=0.00832x elapsed=0:01:22.08    \nframe=   43 fps=0.5 q=29.6 size=       0KiB time=00:00:00.68 bitrate=   0.5kbits/s speed=0.00827x elapsed=0:01:22.64    \nframe=   44 fps=0.5 q=36.4 size=       0KiB time=00:00:00.70 bitrate=   0.5kbits/s speed=0.00841x elapsed=0:01:23.26    \nframe=   45 fps=0.5 q=36.5 size=       0KiB time=00:00:00.70 bitrate=   0.5kbits/s speed=0.00834x elapsed=0:01:23.91    \nframe=   45 fps=0.5 q=36.5 size=       0KiB time=00:00:00.71 bitrate=   0.5kbits/s speed=0.00848x elapsed=0:01:24.51    \nframe=   45 fps=0.5 q=36.5 size=       0KiB time=00:00:00.71 bitrate=   0.5kbits/s speed=0.00842x elapsed=0:01:25.07    \nframe=   45 fps=0.5 q=36.5 size=       0KiB time=00:00:00.71 bitrate=   0.5kbits/s speed=0.00837x elapsed=0:01:25.62    \nframe=   45 fps=0.5 q=36.5 size=       0KiB time=00:00:00.71 bitrate=   0.5kbits/s speed=0.00831x elapsed=0:01:26.21    \nframe=   45 fps=0.5 q=36.5 size=       0KiB time=00:00:00.71 bitrate=   0.5kbits/s speed=0.00825x elapsed=0:01:26.83    \nframe=   45 fps=0.5 q=36.5 size=       0KiB time=00:00:00.71 bitrate=   0.5kbits/s speed=0.00819x elapsed=0:01:27.45    \nframe=   46 fps=0.5 q=36.4 size=       0KiB time=00:00:00.73 bitrate=   0.5kbits/s speed=0.00833x elapsed=0:01:28.00    \nframe=   46 fps=0.5 q=36.4 size=       0KiB time=00:00:00.73 bitrate=   0.5kbits/s speed=0.00828x elapsed=0:01:28.56    \nframe=   47 fps=0.5 q=36.4 size=       0KiB time=00:00:00.75 bitrate=   0.5kbits/s speed=0.00842x elapsed=0:01:29.10    \nframe=   47 fps=0.5 q=36.4 size=       0KiB time=00:00:00.75 bitrate=   0.5kbits/s speed=0.00837x elapsed=0:01:29.64    \nframe=   48 fps=0.5 q=29.9 size=       0KiB time=00:00:00.76 bitrate=   0.5kbits/s speed=0.0085x elapsed=0:01:30.17    \nframe=   48 fps=0.5 q=29.9 size=       0KiB time=00:00:00.76 bitrate=   0.5kbits/s speed=0.00845x elapsed=0:01:30.72    \nframe=   48 fps=0.5 q=29.9 size=       0KiB time=00:00:00.76 bitrate=   0.5kbits/s speed=0.0084x elapsed=0:01:31.24    \nframe=   49 fps=0.5 q=36.1 size=       0KiB time=00:00:00.78 bitrate=   0.4kbits/s speed=0.00853x elapsed=0:01:31.79    \nframe=   50 fps=0.5 q=36.5 size=       0KiB time=00:00:00.80 bitrate=   0.4kbits/s speed=0.00867x elapsed=0:01:32.31    \nframe=   50 fps=0.5 q=36.5 size=       0KiB time=00:00:00.80 bitrate=   0.4kbits/s speed=0.00862x elapsed=0:01:32.82    \nframe=   51 fps=0.5 q=35.3 size=       0KiB time=00:00:00.81 bitrate=   0.4kbits/s speed=0.00875x elapsed=0:01:33.34    \nframe=   51 fps=0.5 q=35.3 size=       0KiB time=00:00:00.81 bitrate=   0.4kbits/s speed=0.0087x elapsed=0:01:33.86    \nframe=   52 fps=0.6 q=35.3 size=       0KiB time=00:00:00.83 bitrate=   0.4kbits/s speed=0.00883x elapsed=0:01:34.39    \nframe=   53 fps=0.6 q=28.6 size=       0KiB time=00:00:00.85 bitrate=   0.4kbits/s speed=0.00896x elapsed=0:01:34.89    \nframe=   54 fps=0.6 q=35.6 size=       0KiB time=00:00:00.86 bitrate=   0.4kbits/s speed=0.00908x elapsed=0:01:35.42    \nframe=   55 fps=0.6 q=36.3 size=       0KiB time=00:00:00.88 bitrate=   0.4kbits/s speed=0.00921x elapsed=0:01:35.94    \nframe=   55 fps=0.6 q=36.3 size=       0KiB time=00:00:00.88 bitrate=   0.4kbits/s speed=0.00916x elapsed=0:01:36.47    \nframe=   56 fps=0.6 q=35.3 size=       0KiB time=00:00:00.90 bitrate=   0.4kbits/s speed=0.00928x elapsed=0:01:37.00    \nframe=   57 fps=0.6 q=35.3 size=       0KiB time=00:00:00.91 bitrate=   0.4kbits/s speed=0.0094x elapsed=0:01:37.55    \nframe=   58 fps=0.6 q=28.5 size=       0KiB time=00:00:00.93 bitrate=   0.4kbits/s speed=0.00952x elapsed=0:01:38.07    \nframe=   58 fps=0.6 q=28.5 size=       0KiB time=00:00:00.93 bitrate=   0.4kbits/s speed=0.00946x elapsed=0:01:38.60    \nframe=   59 fps=0.6 q=34.8 size=       0KiB time=00:00:00.95 bitrate=   0.4kbits/s speed=0.00958x elapsed=0:01:39.11    \nframe=   60 fps=0.6 q=35.5 size=       0KiB time=00:00:00.96 bitrate=   0.4kbits/s speed=0.0097x elapsed=0:01:39.64    \nframe=   60 fps=0.6 q=35.5 size=       0KiB time=00:00:00.96 bitrate=   0.4kbits/s speed=0.00965x elapsed=0:01:40.14    \nframe=   61 fps=0.6 q=35.4 size=       0KiB time=00:00:00.98 bitrate=   0.4kbits/s speed=0.00977x elapsed=0:01:40.67    \nframe=   62 fps=0.6 q=27.9 size=       0KiB time=00:00:01.00 bitrate=   0.4kbits/s speed=0.00988x elapsed=0:01:41.19    \nframe=   62 fps=0.6 q=27.9 size=       0KiB time=00:00:01.00 bitrate=   0.4kbits/s speed=0.00983x elapsed=0:01:41.71    \nframe=   63 fps=0.6 q=33.6 size=       0KiB time=00:00:01.01 bitrate=   0.3kbits/s speed=0.00995x elapsed=0:01:42.22    \nframe=   64 fps=0.6 q=35.2 size=       0KiB time=00:00:01.03 bitrate=   0.3kbits/s speed=0.0101x elapsed=0:01:42.74    \nframe=   64 fps=0.6 q=35.2 size=       0KiB time=00:00:01.03 bitrate=   0.3kbits/s speed=0.01x elapsed=0:01:43.27    \nframe=   65 fps=0.6 q=34.3 size=       0KiB time=00:00:01.05 bitrate=   0.3kbits/s speed=0.0101x elapsed=0:01:43.79    \nframe=   65 fps=0.6 q=34.3 size=       0KiB time=00:00:01.05 bitrate=   0.3kbits/s speed=0.0101x elapsed=0:01:44.33    \nframe=   65 fps=0.6 q=34.3 size=       0KiB time=00:00:01.05 bitrate=   0.3kbits/s speed=0.01x elapsed=0:01:44.85    \nframe=   65 fps=0.6 q=34.3 size=       0KiB time=00:00:01.05 bitrate=   0.3kbits/s speed=0.00996x elapsed=0:01:45.37    \nframe=   65 fps=0.6 q=34.3 size=       0KiB time=00:00:01.05 bitrate=   0.3kbits/s speed=0.00991x elapsed=0:01:45.90    \nframe=   66 fps=0.6 q=35.2 size=       0KiB time=00:00:01.06 bitrate=   0.3kbits/s speed=0.01x elapsed=0:01:46.42    \nframe=   67 fps=0.6 q=28.4 size=       0KiB time=00:00:01.08 bitrate=   0.3kbits/s speed=0.0101x elapsed=0:01:46.94    \nframe=   68 fps=0.6 q=33.5 size=       0KiB time=00:00:01.10 bitrate=   0.3kbits/s speed=0.0102x elapsed=0:01:47.46    \nframe=   68 fps=0.6 q=33.5 size=       0KiB time=00:00:01.10 bitrate=   0.3kbits/s speed=0.0102x elapsed=0:01:47.99    \nframe=   69 fps=0.6 q=35.3 size=       0KiB time=00:00:01.11 bitrate=   0.3kbits/s speed=0.0103x elapsed=0:01:48.52    \nframe=   69 fps=0.6 q=35.3 size=       0KiB time=00:00:01.11 bitrate=   0.3kbits/s speed=0.0102x elapsed=0:01:49.06    \nframe=   69 fps=0.6 q=35.3 size=       0KiB time=00:00:01.11 bitrate=   0.3kbits/s speed=0.0102x elapsed=0:01:49.59    \nframe=   69 fps=0.6 q=35.3 size=       0KiB time=00:00:01.11 bitrate=   0.3kbits/s speed=0.0101x elapsed=0:01:50.13    \nframe=   70 fps=0.6 q=35.3 size=       0KiB time=00:00:01.13 bitrate=   0.3kbits/s speed=0.0102x elapsed=0:01:50.65    \nframe=   70 fps=0.6 q=35.3 size=       0KiB time=00:00:01.13 bitrate=   0.3kbits/s speed=0.0102x elapsed=0:01:51.18    \nframe=   70 fps=0.6 q=35.3 size=       0KiB time=00:00:01.13 bitrate=   0.3kbits/s speed=0.0101x elapsed=0:01:51.73    \nframe=   70 fps=0.6 q=35.3 size=       0KiB time=00:00:01.13 bitrate=   0.3kbits/s speed=0.0101x elapsed=0:01:52.24    \nframe=   71 fps=0.6 q=35.3 size=       0KiB time=00:00:01.15 bitrate=   0.3kbits/s speed=0.0102x elapsed=0:01:52.76    \nframe=   71 fps=0.6 q=35.3 size=       0KiB time=00:00:01.15 bitrate=   0.3kbits/s speed=0.0102x elapsed=0:01:53.27    \nframe=   72 fps=0.6 q=31.5 size=       0KiB time=00:00:01.16 bitrate=   0.3kbits/s speed=0.0103x elapsed=0:01:53.79    \nframe=   72 fps=0.6 q=31.5 size=       0KiB time=00:00:01.16 bitrate=   0.3kbits/s speed=0.0102x elapsed=0:01:54.30    \nframe=   72 fps=0.6 q=31.5 size=       0KiB time=00:00:01.16 bitrate=   0.3kbits/s speed=0.0102x elapsed=0:01:54.83    \nframe=   73 fps=0.6 q=34.2 size=       0KiB time=00:00:01.18 bitrate=   0.3kbits/s speed=0.0103x elapsed=0:01:55.34    \nframe=   74 fps=0.6 q=36.2 size=       0KiB time=00:00:01.20 bitrate=   0.3kbits/s speed=0.0104x elapsed=0:01:55.87    \nframe=   75 fps=0.6 q=35.3 size=       0KiB time=00:00:01.21 bitrate=   0.3kbits/s speed=0.0105x elapsed=0:01:56.40    \nframe=   75 fps=0.6 q=35.3 size=       0KiB time=00:00:01.21 bitrate=   0.3kbits/s speed=0.0104x elapsed=0:01:56.92    \nframe=   75 fps=0.6 q=35.3 size=       0KiB time=00:00:01.21 bitrate=   0.3kbits/s speed=0.0104x elapsed=0:01:57.46    \nframe=   75 fps=0.6 q=35.3 size=       0KiB time=00:00:01.21 bitrate=   0.3kbits/s speed=0.0103x elapsed=0:01:57.98    \nframe=   76 fps=0.6 q=35.3 size=       0KiB time=00:00:01.23 bitrate=   0.3kbits/s speed=0.0104x elapsed=0:01:58.49    \nframe=   76 fps=0.6 q=35.3 size=       0KiB time=00:00:01.23 bitrate=   0.3kbits/s speed=0.0104x elapsed=0:01:59.01    \nframe=   77 fps=0.6 q=30.3 size=       0KiB time=00:00:01.25 bitrate=   0.3kbits/s speed=0.0105x elapsed=0:01:59.54    \nframe=   78 fps=0.6 q=33.3 size=       0KiB time=00:00:01.26 bitrate=   0.3kbits/s speed=0.0105x elapsed=0:02:00.07    \nframe=   78 fps=0.6 q=33.3 size=       0KiB time=00:00:01.26 bitrate=   0.3kbits/s speed=0.0105x elapsed=0:02:00.60    \nframe=   78 fps=0.6 q=33.3 size=       0KiB time=00:00:01.26 bitrate=   0.3kbits/s speed=0.0105x elapsed=0:02:01.17    \nframe=   79 fps=0.6 q=36.1 size=       0KiB time=00:00:01.28 bitrate=   0.3kbits/s speed=0.0105x elapsed=0:02:01.69    \nframe=   79 fps=0.6 q=36.1 size=       0KiB time=00:00:01.28 bitrate=   0.3kbits/s speed=0.0105x elapsed=0:02:02.22    \nframe=   79 fps=0.6 q=36.1 size=       0KiB time=00:00:01.28 bitrate=   0.3kbits/s speed=0.0104x elapsed=0:02:02.82    \nframe=   79 fps=0.6 q=36.1 size=       0KiB time=00:00:01.28 bitrate=   0.3kbits/s speed=0.0104x elapsed=0:02:03.40    \nframe=   80 fps=0.6 q=35.3 size=       0KiB time=00:00:01.30 bitrate=   0.3kbits/s speed=0.0105x elapsed=0:02:03.96    \nframe=   80 fps=0.6 q=35.3 size=       0KiB time=00:00:01.30 bitrate=   0.3kbits/s speed=0.0104x elapsed=0:02:04.49    \nframe=   80 fps=0.6 q=35.3 size=       0KiB time=00:00:01.30 bitrate=   0.3kbits/s speed=0.0104x elapsed=0:02:05.02    \nframe=   80 fps=0.6 q=35.3 size=       0KiB time=00:00:01.30 bitrate=   0.3kbits/s speed=0.0104x elapsed=0:02:05.54    \nframe=   80 fps=0.6 q=35.3 size=       0KiB time=00:00:01.30 bitrate=   0.3kbits/s speed=0.0103x elapsed=0:02:06.08    \nframe=   81 fps=0.6 q=35.2 size=       0KiB time=00:00:01.31 bitrate=   0.3kbits/s speed=0.0104x elapsed=0:02:06.61    \nframe=   81 fps=0.6 q=35.2 size=       0KiB time=00:00:01.31 bitrate=   0.3kbits/s speed=0.0104x elapsed=0:02:07.15    \nframe=   81 fps=0.6 q=35.2 size=       0KiB time=00:00:01.31 bitrate=   0.3kbits/s speed=0.0103x elapsed=0:02:07.71    \nframe=   82 fps=0.6 q=29.8 size=       0KiB time=00:00:01.33 bitrate=   0.3kbits/s speed=0.0104x elapsed=0:02:08.26    \nframe=   83 fps=0.6 q=34.1 size=       0KiB time=00:00:01.35 bitrate=   0.3kbits/s speed=0.0105x elapsed=0:02:08.83    \nframe=   83 fps=0.6 q=34.1 size=       0KiB time=00:00:01.35 bitrate=   0.3kbits/s speed=0.0104x elapsed=0:02:09.37    \nframe=   84 fps=0.6 q=35.2 size=       0KiB time=00:00:01.36 bitrate=   0.3kbits/s speed=0.0105x elapsed=0:02:09.93    \nframe=   84 fps=0.6 q=35.2 size=       0KiB time=00:00:01.36 bitrate=   0.3kbits/s speed=0.0105x elapsed=0:02:10.47    \nframe=   84 fps=0.6 q=35.2 size=       0KiB time=00:00:01.36 bitrate=   0.3kbits/s speed=0.0104x elapsed=0:02:11.01    \nframe=   84 fps=0.6 q=35.2 size=       0KiB time=00:00:01.36 bitrate=   0.3kbits/s speed=0.0104x elapsed=0:02:11.53    \nframe=   85 fps=0.6 q=35.1 size=       0KiB time=00:00:01.38 bitrate=   0.3kbits/s speed=0.0105x elapsed=0:02:12.07    \nframe=   85 fps=0.6 q=35.1 size=       0KiB time=00:00:01.38 bitrate=   0.3kbits/s speed=0.0104x elapsed=0:02:12.59    \nframe=   85 fps=0.6 q=35.1 size=       0KiB time=00:00:01.38 bitrate=   0.3kbits/s speed=0.0104x elapsed=0:02:13.12    \nframe=   85 fps=0.6 q=35.1 size=       0KiB time=00:00:01.38 bitrate=   0.3kbits/s speed=0.0103x elapsed=0:02:13.67    \nframe=   85 fps=0.6 q=35.1 size=       0KiB time=00:00:01.38 bitrate=   0.3kbits/s speed=0.0103x elapsed=0:02:14.26    \nframe=   85 fps=0.6 q=35.1 size=       0KiB time=00:00:01.38 bitrate=   0.3kbits/s speed=0.0103x elapsed=0:02:14.77    \nframe=   85 fps=0.6 q=35.1 size=       0KiB time=00:00:01.38 bitrate=   0.3kbits/s speed=0.0102x elapsed=0:02:15.34    \nframe=   85 fps=0.6 q=35.1 size=       0KiB time=00:00:01.38 bitrate=   0.3kbits/s speed=0.0102x elapsed=0:02:15.90    \nframe=   85 fps=0.6 q=35.1 size=       0KiB time=00:00:01.38 bitrate=   0.3kbits/s speed=0.0101x elapsed=0:02:16.45    \nframe=   85 fps=0.6 q=35.1 size=       0KiB time=00:00:01.38 bitrate=   0.3kbits/s speed=0.0101x elapsed=0:02:17.06    \nframe=   86 fps=0.6 q=35.4 size=       0KiB time=00:00:01.40 bitrate=   0.3kbits/s speed=0.0102x elapsed=0:02:17.58    \nframe=   86 fps=0.6 q=35.4 size=       0KiB time=00:00:01.40 bitrate=   0.3kbits/s speed=0.0101x elapsed=0:02:18.10    \nframe=   86 fps=0.6 q=35.4 size=       0KiB time=00:00:01.40 bitrate=   0.3kbits/s speed=0.0101x elapsed=0:02:18.63    \nframe=   87 fps=0.6 q=28.4 size=       0KiB time=00:00:01.41 bitrate=   0.2kbits/s speed=0.0102x elapsed=0:02:19.16    \nframe=   87 fps=0.6 q=28.4 size=       0KiB time=00:00:01.41 bitrate=   0.2kbits/s speed=0.0101x elapsed=0:02:19.71    \nframe=   87 fps=0.6 q=28.4 size=       0KiB time=00:00:01.41 bitrate=   0.2kbits/s speed=0.0101x elapsed=0:02:20.25    \nframe=   88 fps=0.6 q=33.9 size=       0KiB time=00:00:01.43 bitrate=   0.2kbits/s speed=0.0102x elapsed=0:02:20.78    \nframe=   88 fps=0.6 q=33.9 size=       0KiB time=00:00:01.43 bitrate=   0.2kbits/s speed=0.0101x elapsed=0:02:21.32    \nframe=   89 fps=0.6 q=35.3 size=     256KiB time=00:00:01.45 bitrate=1446.6kbits/s speed=0.0102x elapsed=0:02:21.85    \nframe=   89 fps=0.6 q=35.3 size=     256KiB time=00:00:01.45 bitrate=1446.6kbits/s speed=0.0102x elapsed=0:02:22.38    \nframe=   90 fps=0.6 q=28.0 size=     256KiB time=00:00:01.46 bitrate=1430.1kbits/s speed=0.0103x elapsed=0:02:22.91    \nframe=   90 fps=0.6 q=28.0 size=     256KiB time=00:00:01.46 bitrate=1430.1kbits/s speed=0.0102x elapsed=0:02:23.43    \nframe=   91 fps=0.6 q=33.9 size=     256KiB time=00:00:01.48 bitrate=1414.0kbits/s speed=0.0103x elapsed=0:02:23.94    \nframe=   91 fps=0.6 q=33.9 size=     256KiB time=00:00:01.48 bitrate=1414.0kbits/s speed=0.0103x elapsed=0:02:24.47    \nframe=   92 fps=0.6 q=34.1 size=     256KiB time=00:00:01.50 bitrate=1398.3kbits/s speed=0.0103x elapsed=0:02:25.03    \nframe=   92 fps=0.6 q=34.1 size=     256KiB time=00:00:01.50 bitrate=1398.3kbits/s speed=0.0103x elapsed=0:02:25.55    \nframe=   92 fps=0.6 q=34.1 size=     256KiB time=00:00:01.50 bitrate=1398.3kbits/s speed=0.0103x elapsed=0:02:26.07    \nframe=   93 fps=0.6 q=34.2 size=     256KiB time=00:00:01.51 bitrate=1383.0kbits/s speed=0.0103x elapsed=0:02:26.59    \nframe=   94 fps=0.6 q=34.3 size=     256KiB time=00:00:01.53 bitrate=1367.9kbits/s speed=0.0104x elapsed=0:02:27.13    \nframe=   94 fps=0.6 q=34.3 size=     256KiB time=00:00:01.53 bitrate=1367.9kbits/s speed=0.0104x elapsed=0:02:27.68    \nframe=   94 fps=0.6 q=34.3 size=     256KiB time=00:00:01.53 bitrate=1367.9kbits/s speed=0.0103x elapsed=0:02:28.19    \nframe=   94 fps=0.6 q=34.3 size=     256KiB time=00:00:01.53 bitrate=1367.9kbits/s speed=0.0103x elapsed=0:02:28.72    \nframe=   94 fps=0.6 q=34.3 size=     256KiB time=00:00:01.53 bitrate=1367.9kbits/s speed=0.0103x elapsed=0:02:29.27    \nframe=   94 fps=0.6 q=34.3 size=     256KiB time=00:00:01.53 bitrate=1367.9kbits/s speed=0.0102x elapsed=0:02:29.82    \nframe=   94 fps=0.6 q=34.3 size=     256KiB time=00:00:01.53 bitrate=1367.9kbits/s speed=0.0102x elapsed=0:02:30.35    \nframe=   95 fps=0.6 q=27.8 size=     256KiB time=00:00:01.55 bitrate=1353.2kbits/s speed=0.0103x elapsed=0:02:30.90    \nframe=   96 fps=0.6 q=34.1 size=     256KiB time=00:00:01.56 bitrate=1338.8kbits/s speed=0.0103x elapsed=0:02:31.50    \nframe=   96 fps=0.6 q=34.1 size=     256KiB time=00:00:01.56 bitrate=1338.8kbits/s speed=0.0103x elapsed=0:02:32.05    \nframe=   96 fps=0.6 q=34.1 size=     256KiB time=00:00:01.56 bitrate=1338.8kbits/s speed=0.0103x elapsed=0:02:32.59    \nframe=   97 fps=0.6 q=35.0 size=     256KiB time=00:00:01.58 bitrate=1324.7kbits/s speed=0.0103x elapsed=0:02:33.12    \nframe=   97 fps=0.6 q=35.0 size=     256KiB time=00:00:01.58 bitrate=1324.7kbits/s speed=0.0103x elapsed=0:02:33.68    \nframe=   97 fps=0.6 q=35.0 size=     256KiB time=00:00:01.58 bitrate=1324.7kbits/s speed=0.0103x elapsed=0:02:34.26    \nframe=   97 fps=0.6 q=35.0 size=     256KiB time=00:00:01.58 bitrate=1324.7kbits/s speed=0.0102x elapsed=0:02:34.77    \nframe=   97 fps=0.6 q=35.0 size=     256KiB time=00:00:01.58 bitrate=1324.7kbits/s speed=0.0102x elapsed=0:02:35.33    \nframe=   98 fps=0.6 q=35.1 size=     256KiB time=00:00:01.60 bitrate=1310.9kbits/s speed=0.0103x elapsed=0:02:35.88    \nframe=   98 fps=0.6 q=35.1 size=     256KiB time=00:00:01.60 bitrate=1310.9kbits/s speed=0.0102x elapsed=0:02:36.44    \nframe=   98 fps=0.6 q=35.1 size=     256KiB time=00:00:01.60 bitrate=1310.9kbits/s speed=0.0102x elapsed=0:02:36.96    \nframe=   98 fps=0.6 q=35.1 size=     256KiB time=00:00:01.60 bitrate=1310.9kbits/s speed=0.0102x elapsed=0:02:37.47    \nframe=   98 fps=0.6 q=35.1 size=     256KiB time=00:00:01.60 bitrate=1310.9kbits/s speed=0.0101x elapsed=0:02:38.01    \nframe=   99 fps=0.6 q=35.2 size=     256KiB time=00:00:01.61 bitrate=1297.4kbits/s speed=0.0102x elapsed=0:02:38.56    \nframe=  100 fps=0.6 q=32.4 size=     256KiB time=00:00:01.63 bitrate=1284.2kbits/s speed=0.0103x elapsed=0:02:39.10    \nframe=  100 fps=0.6 q=32.4 size=     256KiB time=00:00:01.63 bitrate=1284.2kbits/s speed=0.0102x elapsed=0:02:39.63    \nframe=  100 fps=0.6 q=32.4 size=     256KiB time=00:00:01.63 bitrate=1284.2kbits/s speed=0.0102x elapsed=0:02:40.18    \nframe=  100 fps=0.6 q=32.4 size=     256KiB time=00:00:01.63 bitrate=1284.2kbits/s speed=0.0102x elapsed=0:02:40.70    \nframe=  100 fps=0.6 q=32.4 size=     256KiB time=00:00:01.63 bitrate=1284.2kbits/s speed=0.0101x elapsed=0:02:41.22    \nframe=  101 fps=0.6 q=34.5 size=     256KiB time=00:00:01.65 bitrate=1271.2kbits/s speed=0.0102x elapsed=0:02:41.78    \nframe=  101 fps=0.6 q=34.5 size=     256KiB time=00:00:01.65 bitrate=1271.2kbits/s speed=0.0102x elapsed=0:02:42.30    \nframe=  102 fps=0.6 q=35.4 size=     256KiB time=00:00:01.66 bitrate=1258.5kbits/s speed=0.0102x elapsed=0:02:42.83    \nframe=  102 fps=0.6 q=35.4 size=     256KiB time=00:00:01.66 bitrate=1258.5kbits/s speed=0.0102x elapsed=0:02:43.35    \nframe=  102 fps=0.6 q=35.4 size=     256KiB time=00:00:01.66 bitrate=1258.5kbits/s speed=0.0102x elapsed=0:02:43.88    \nframe=  103 fps=0.6 q=36.3 size=     256KiB time=00:00:01.68 bitrate=1246.0kbits/s speed=0.0102x elapsed=0:02:44.43    \nframe=  104 fps=0.6 q=32.0 size=     256KiB time=00:00:01.70 bitrate=1233.8kbits/s speed=0.0103x elapsed=0:02:44.98    \nframe=  104 fps=0.6 q=32.0 size=     256KiB time=00:00:01.70 bitrate=1233.8kbits/s speed=0.0103x elapsed=0:02:45.51    \nframe=  105 fps=0.6 q=34.3 size=     256KiB time=00:00:01.71 bitrate=1221.8kbits/s speed=0.0103x elapsed=0:02:46.02    \nframe=  105 fps=0.6 q=34.3 size=     256KiB time=00:00:01.71 bitrate=1221.8kbits/s speed=0.0103x elapsed=0:02:46.56    \nframe=  105 fps=0.6 q=34.3 size=     256KiB time=00:00:01.71 bitrate=1221.8kbits/s speed=0.0103x elapsed=0:02:47.10    \nframe=  105 fps=0.6 q=34.3 size=     256KiB time=00:00:01.71 bitrate=1221.8kbits/s speed=0.0102x elapsed=0:02:47.64    \nframe=  105 fps=0.6 q=34.3 size=     256KiB time=00:00:01.71 bitrate=1221.8kbits/s speed=0.0102x elapsed=0:02:48.19    \nframe=  105 fps=0.6 q=34.3 size=     256KiB time=00:00:01.71 bitrate=1221.8kbits/s speed=0.0102x elapsed=0:02:48.73    \nframe=  105 fps=0.6 q=34.3 size=     256KiB time=00:00:01.71 bitrate=1221.8kbits/s speed=0.0101x elapsed=0:02:49.28    \nframe=  105 fps=0.6 q=34.3 size=     256KiB time=00:00:01.71 bitrate=1221.8kbits/s speed=0.0101x elapsed=0:02:49.83    \nframe=  106 fps=0.6 q=35.3 size=     256KiB time=00:00:01.73 bitrate=1210.1kbits/s speed=0.0102x elapsed=0:02:50.39    \nframe=  106 fps=0.6 q=35.3 size=     256KiB time=00:00:01.73 bitrate=1210.1kbits/s speed=0.0101x elapsed=0:02:50.94    \nframe=  106 fps=0.6 q=35.3 size=     256KiB time=00:00:01.73 bitrate=1210.1kbits/s speed=0.0101x elapsed=0:02:51.53    \nframe=  106 fps=0.6 q=35.3 size=     256KiB time=00:00:01.73 bitrate=1210.1kbits/s speed=0.0101x elapsed=0:02:52.14    \nframe=  107 fps=0.6 q=35.2 size=     256KiB time=00:00:01.75 bitrate=1198.6kbits/s speed=0.0101x elapsed=0:02:52.71    \nframe=  107 fps=0.6 q=35.2 size=     256KiB time=00:00:01.75 bitrate=1198.6kbits/s speed=0.0101x elapsed=0:02:53.23    \nframe=  108 fps=0.6 q=35.4 size=     256KiB time=00:00:01.76 bitrate=1187.3kbits/s speed=0.0102x elapsed=0:02:53.75    \nframe=  108 fps=0.6 q=35.4 size=     256KiB time=00:00:01.76 bitrate=1187.3kbits/s speed=0.0101x elapsed=0:02:54.27    \nframe=  108 fps=0.6 q=35.4 size=     256KiB time=00:00:01.76 bitrate=1187.3kbits/s speed=0.0101x elapsed=0:02:54.79    \nframe=  108 fps=0.6 q=35.4 size=     256KiB time=00:00:01.76 bitrate=1187.3kbits/s speed=0.0101x elapsed=0:02:55.32    \nframe=  108 fps=0.6 q=35.4 size=     256KiB time=00:00:01.76 bitrate=1187.3kbits/s speed=0.01x elapsed=0:02:55.87    \nframe=  109 fps=0.6 q=30.4 size=     256KiB time=00:00:01.78 bitrate=1176.2kbits/s speed=0.0101x elapsed=0:02:56.45    \nframe=  109 fps=0.6 q=30.4 size=     256KiB time=00:00:01.78 bitrate=1176.2kbits/s speed=0.0101x elapsed=0:02:56.99    \nframe=  109 fps=0.6 q=30.4 size=     256KiB time=00:00:01.78 bitrate=1176.2kbits/s speed=0.01x elapsed=0:02:57.53    \nframe=  110 fps=0.6 q=33.9 size=     256KiB time=00:00:01.80 bitrate=1165.3kbits/s speed=0.0101x elapsed=0:02:58.05    \nframe=  110 fps=0.6 q=33.9 size=     256KiB time=00:00:01.80 bitrate=1165.3kbits/s speed=0.0101x elapsed=0:02:58.59    \nframe=  111 fps=0.6 q=35.2 size=     256KiB time=00:00:01.81 bitrate=1154.6kbits/s speed=0.0101x elapsed=0:02:59.16    \nframe=  111 fps=0.6 q=35.2 size=     256KiB time=00:00:01.81 bitrate=1154.6kbits/s speed=0.0101x elapsed=0:02:59.70    \nframe=  111 fps=0.6 q=35.2 size=     256KiB time=00:00:01.81 bitrate=1154.6kbits/s speed=0.0101x elapsed=0:03:00.23    \nframe=  111 fps=0.6 q=35.2 size=     256KiB time=00:00:01.81 bitrate=1154.6kbits/s speed=0.01x elapsed=0:03:00.78    \nframe=  111 fps=0.6 q=35.2 size=     256KiB time=00:00:01.81 bitrate=1154.6kbits/s speed=0.01x elapsed=0:03:01.31    \nframe=  111 fps=0.6 q=35.2 size=     256KiB time=00:00:01.81 bitrate=1154.6kbits/s speed=0.00999x elapsed=0:03:01.87    \nframe=  112 fps=0.6 q=35.3 size=     256KiB time=00:00:01.83 bitrate=1144.1kbits/s speed=0.0101x elapsed=0:03:02.41    \nframe=  112 fps=0.6 q=35.3 size=     256KiB time=00:00:01.83 bitrate=1144.1kbits/s speed=0.01x elapsed=0:03:02.94    \nframe=  112 fps=0.6 q=35.3 size=     256KiB time=00:00:01.83 bitrate=1144.1kbits/s speed=0.00999x elapsed=0:03:03.50    \nframe=  112 fps=0.6 q=35.3 size=     256KiB time=00:00:01.83 bitrate=1144.1kbits/s speed=0.00996x elapsed=0:03:04.02    \nframe=  112 fps=0.6 q=35.3 size=     256KiB time=00:00:01.83 bitrate=1144.1kbits/s speed=0.00993x elapsed=0:03:04.57    \nframe=  113 fps=0.6 q=35.5 size=     256KiB time=00:00:01.85 bitrate=1133.8kbits/s speed=0.00999x elapsed=0:03:05.15    \nframe=  113 fps=0.6 q=35.5 size=     256KiB time=00:00:01.85 bitrate=1133.8kbits/s speed=0.00996x elapsed=0:03:05.71    \nframe=  113 fps=0.6 q=35.5 size=     256KiB time=00:00:01.85 bitrate=1133.8kbits/s speed=0.00993x elapsed=0:03:06.26    \nframe=  114 fps=0.6 q=33.1 size=     256KiB time=00:00:01.86 bitrate=1123.7kbits/s speed=0.00999x elapsed=0:03:06.79    \nframe=  114 fps=0.6 q=33.1 size=     256KiB time=00:00:01.86 bitrate=1123.7kbits/s speed=0.00996x elapsed=0:03:07.35    \nframe=  114 fps=0.6 q=33.1 size=     256KiB time=00:00:01.86 bitrate=1123.7kbits/s speed=0.00993x elapsed=0:03:07.91    \nframe=  114 fps=0.6 q=33.1 size=     256KiB time=00:00:01.86 bitrate=1123.7kbits/s speed=0.0099x elapsed=0:03:08.55    \nframe=  115 fps=0.6 q=34.8 size=     256KiB time=00:00:01.88 bitrate=1113.7kbits/s speed=0.00996x elapsed=0:03:09.12    \nframe=  115 fps=0.6 q=34.8 size=     256KiB time=00:00:01.88 bitrate=1113.7kbits/s speed=0.00993x elapsed=0:03:09.67    \nframe=  115 fps=0.6 q=34.8 size=     256KiB time=00:00:01.88 bitrate=1113.7kbits/s speed=0.0099x elapsed=0:03:10.21    \nframe=  115 fps=0.6 q=34.8 size=     256KiB time=00:00:01.88 bitrate=1113.7kbits/s speed=0.00987x elapsed=0:03:10.78    \nframe=  115 fps=0.6 q=34.8 size=     256KiB time=00:00:01.88 bitrate=1113.7kbits/s speed=0.00984x elapsed=0:03:11.33    \nframe=  115 fps=0.6 q=34.8 size=     256KiB time=00:00:01.88 bitrate=1113.7kbits/s speed=0.00981x elapsed=0:03:11.93    \nframe=  115 fps=0.6 q=34.8 size=     256KiB time=00:00:01.88 bitrate=1113.7kbits/s speed=0.00978x elapsed=0:03:12.52    \nframe=  115 fps=0.6 q=34.8 size=     256KiB time=00:00:01.88 bitrate=1113.7kbits/s speed=0.00975x elapsed=0:03:13.08    \nframe=  116 fps=0.6 q=36.3 size=     256KiB time=00:00:01.90 bitrate=1103.9kbits/s speed=0.00981x elapsed=0:03:13.63    \nframe=  116 fps=0.6 q=36.3 size=     256KiB time=00:00:01.90 bitrate=1103.9kbits/s speed=0.00978x elapsed=0:03:14.19    \nframe=  116 fps=0.6 q=36.3 size=     256KiB time=00:00:01.90 bitrate=1103.9kbits/s speed=0.00976x elapsed=0:03:14.73    \nframe=  116 fps=0.6 q=36.3 size=     256KiB time=00:00:01.90 bitrate=1103.9kbits/s speed=0.00973x elapsed=0:03:15.25    \nframe=  117 fps=0.6 q=35.2 size=     256KiB time=00:00:01.91 bitrate=1094.3kbits/s speed=0.00979x elapsed=0:03:15.78    \nframe=  117 fps=0.6 q=35.2 size=     256KiB time=00:00:01.91 bitrate=1094.3kbits/s speed=0.00976x elapsed=0:03:16.30    \nframe=  118 fps=0.6 q=30.4 size=     256KiB time=00:00:01.93 bitrate=1084.9kbits/s speed=0.00982x elapsed=0:03:16.82    \nframe=  118 fps=0.6 q=30.4 size=     256KiB time=00:00:01.93 bitrate=1084.9kbits/s speed=0.0098x elapsed=0:03:17.33    \nframe=  121 fps=0.6 q=35.2 size=     256KiB time=00:00:01.98 bitrate=1057.6kbits/s speed=0.01x elapsed=0:03:17.85    \nframe=  121 fps=0.6 q=35.2 size=     256KiB time=00:00:01.98 bitrate=1057.6kbits/s speed=0.01x elapsed=0:03:18.37    \nframe=  121 fps=0.6 q=35.2 size=     256KiB time=00:00:01.98 bitrate=1057.6kbits/s speed=0.00997x elapsed=0:03:18.87    \nframe=  122 fps=0.6 q=35.3 size=     256KiB time=00:00:02.00 bitrate=1048.8kbits/s speed=0.01x elapsed=0:03:19.39    \nframe=  123 fps=0.6 q=29.4 size=     256KiB time=00:00:02.01 bitrate=1040.1kbits/s speed=0.0101x elapsed=0:03:19.93    \nframe=  123 fps=0.6 q=29.4 size=     256KiB time=00:00:02.01 bitrate=1040.1kbits/s speed=0.0101x elapsed=0:03:20.48    \nframe=  124 fps=0.6 q=33.1 size=     256KiB time=00:00:02.03 bitrate=1031.6kbits/s speed=0.0101x elapsed=0:03:21.01    \nframe=  124 fps=0.6 q=33.1 size=     256KiB time=00:00:02.03 bitrate=1031.6kbits/s speed=0.0101x elapsed=0:03:21.53    \nframe=  125 fps=0.6 q=34.4 size=     256KiB time=00:00:02.05 bitrate=1023.2kbits/s speed=0.0101x elapsed=0:03:22.05    \nframe=  126 fps=0.6 q=27.7 size=     256KiB time=00:00:02.06 bitrate=1014.9kbits/s speed=0.0102x elapsed=0:03:22.59    \nframe=  127 fps=0.6 q=32.3 size=     256KiB time=00:00:02.08 bitrate=1006.8kbits/s speed=0.0103x elapsed=0:03:23.10    \nframe=  128 fps=0.6 q=34.3 size=     256KiB time=00:00:02.10 bitrate= 998.8kbits/s speed=0.0103x elapsed=0:03:23.62    \nframe=  129 fps=0.6 q=34.3 size=     256KiB time=00:00:02.11 bitrate= 990.9kbits/s speed=0.0104x elapsed=0:03:24.14    \nframe=  129 fps=0.6 q=34.3 size=     256KiB time=00:00:02.11 bitrate= 990.9kbits/s speed=0.0103x elapsed=0:03:24.64    \nframe=  130 fps=0.6 q=34.4 size=     256KiB time=00:00:02.13 bitrate= 983.2kbits/s speed=0.0104x elapsed=0:03:25.16    \nframe=  130 fps=0.6 q=34.4 size=     256KiB time=00:00:02.13 bitrate= 983.2kbits/s speed=0.0104x elapsed=0:03:25.68    \nframe=  132 fps=0.6 q=32.7 size=     256KiB time=00:00:02.16 bitrate= 968.1kbits/s speed=0.0105x elapsed=0:03:26.21    \nframe=  132 fps=0.6 q=32.7 size=     256KiB time=00:00:02.16 bitrate= 968.1kbits/s speed=0.0105x elapsed=0:03:26.73    \nframe=  133 fps=0.6 q=34.3 size=     256KiB time=00:00:02.18 bitrate= 960.7kbits/s speed=0.0105x elapsed=0:03:27.25    \nframe=  134 fps=0.6 q=34.2 size=     256KiB time=00:00:02.20 bitrate= 953.4kbits/s speed=0.0106x elapsed=0:03:27.77    \nframe=  134 fps=0.6 q=34.2 size=     256KiB time=00:00:02.20 bitrate= 953.4kbits/s speed=0.0106x elapsed=0:03:28.29    \nframe=  135 fps=0.6 q=35.2 size=     256KiB time=00:00:02.21 bitrate= 946.2kbits/s speed=0.0106x elapsed=0:03:28.80    \nframe=  137 fps=0.7 q=33.8 size=     256KiB time=00:00:02.25 bitrate= 932.2kbits/s speed=0.0107x elapsed=0:03:29.33    \nframe=  138 fps=0.7 q=35.3 size=     256KiB time=00:00:02.26 bitrate= 925.4kbits/s speed=0.0108x elapsed=0:03:29.86    \nframe=  139 fps=0.7 q=34.9 size=     256KiB time=00:00:02.28 bitrate= 918.6kbits/s speed=0.0109x elapsed=0:03:30.37    \nframe=  140 fps=0.7 q=35.1 size=     256KiB time=00:00:02.30 bitrate= 912.0kbits/s speed=0.0109x elapsed=0:03:30.88    \nframe=  140 fps=0.7 q=35.1 size=     256KiB time=00:00:02.30 bitrate= 912.0kbits/s speed=0.0109x elapsed=0:03:31.39    \nframe=  140 fps=0.7 q=35.1 size=     256KiB time=00:00:02.30 bitrate= 912.0kbits/s speed=0.0109x elapsed=0:03:31.92    \nframe=  141 fps=0.7 q=30.4 size=     256KiB time=00:00:02.31 bitrate= 905.4kbits/s speed=0.0109x elapsed=0:03:32.45    \nframe=  141 fps=0.7 q=30.4 size=     256KiB time=00:00:02.31 bitrate= 905.4kbits/s speed=0.0109x elapsed=0:03:32.96    \nframe=  142 fps=0.7 q=34.3 size=     256KiB time=00:00:02.33 bitrate= 898.9kbits/s speed=0.0109x elapsed=0:03:33.48    \nframe=  143 fps=0.7 q=35.2 size=     256KiB time=00:00:02.35 bitrate= 892.6kbits/s speed=0.011x elapsed=0:03:34.01    \nframe=  144 fps=0.7 q=35.4 size=     256KiB time=00:00:02.36 bitrate= 886.3kbits/s speed=0.011x elapsed=0:03:34.53    \nframe=  144 fps=0.7 q=35.4 size=     256KiB time=00:00:02.36 bitrate= 886.3kbits/s speed=0.011x elapsed=0:03:35.04    \nframe=  144 fps=0.7 q=35.4 size=     256KiB time=00:00:02.36 bitrate= 886.3kbits/s speed=0.011x elapsed=0:03:35.56    \nframe=  145 fps=0.7 q=35.4 size=     256KiB time=00:00:02.38 bitrate= 880.1kbits/s speed=0.011x elapsed=0:03:36.07    \nframe=  146 fps=0.7 q=27.1 size=     256KiB time=00:00:02.40 bitrate= 874.0kbits/s speed=0.0111x elapsed=0:03:36.59    \nframe=  147 fps=0.7 q=33.3 size=     256KiB time=00:00:02.41 bitrate= 867.9kbits/s speed=0.0111x elapsed=0:03:37.12    \nframe=  148 fps=0.7 q=34.4 size=     256KiB time=00:00:02.43 bitrate= 862.0kbits/s speed=0.0112x elapsed=0:03:37.67    \nframe=  149 fps=0.7 q=35.1 size=     256KiB time=00:00:02.45 bitrate= 856.1kbits/s speed=0.0112x elapsed=0:03:38.21    \nframe=  150 fps=0.7 q=35.2 size=     256KiB time=00:00:02.46 bitrate= 850.3kbits/s speed=0.0113x elapsed=0:03:38.73    \nframe=  150 fps=0.7 q=35.2 size=     256KiB time=00:00:02.46 bitrate= 850.3kbits/s speed=0.0113x elapsed=0:03:39.25    \nframe=  152 fps=0.7 q=34.2 size=     256KiB time=00:00:02.50 bitrate= 839.0kbits/s speed=0.0114x elapsed=0:03:39.77    \nframe=  152 fps=0.7 q=34.2 size=     256KiB time=00:00:02.50 bitrate= 839.0kbits/s speed=0.0113x elapsed=0:03:40.29    \nframe=  152 fps=0.7 q=34.2 size=     256KiB time=00:00:02.50 bitrate= 839.0kbits/s speed=0.0113x elapsed=0:03:40.82    \nframe=  153 fps=0.7 q=35.4 size=     256KiB time=00:00:02.51 bitrate= 833.4kbits/s speed=0.0114x elapsed=0:03:41.34    \nframe=  155 fps=0.7 q=34.4 size=     256KiB time=00:00:02.55 bitrate= 822.6kbits/s speed=0.0115x elapsed=0:03:41.88    \nframe=  155 fps=0.7 q=34.4 size=     256KiB time=00:00:02.55 bitrate= 822.6kbits/s speed=0.0115x elapsed=0:03:42.40    \nframe=  156 fps=0.7 q=27.3 size=     256KiB time=00:00:02.56 bitrate= 817.2kbits/s speed=0.0115x elapsed=0:03:42.92    \nframe=  157 fps=0.7 q=33.3 size=     256KiB time=00:00:02.58 bitrate= 811.9kbits/s speed=0.0116x elapsed=0:03:43.46    \nframe=  158 fps=0.7 q=33.5 size=     256KiB time=00:00:02.60 bitrate= 806.7kbits/s speed=0.0116x elapsed=0:03:44.00    \nframe=  158 fps=0.7 q=33.5 size=     256KiB time=00:00:02.60 bitrate= 806.7kbits/s speed=0.0116x elapsed=0:03:44.51    \nframe=  159 fps=0.7 q=33.4 size=     256KiB time=00:00:02.61 bitrate= 801.6kbits/s speed=0.0116x elapsed=0:03:45.02    \nframe=  160 fps=0.7 q=33.3 size=     256KiB time=00:00:02.63 bitrate= 796.5kbits/s speed=0.0117x elapsed=0:03:45.54    \nframe=  160 fps=0.7 q=33.3 size=     256KiB time=00:00:02.63 bitrate= 796.5kbits/s speed=0.0116x elapsed=0:03:46.05    \nframe=  160 fps=0.7 q=33.3 size=     256KiB time=00:00:02.63 bitrate= 796.5kbits/s speed=0.0116x elapsed=0:03:46.59    \nframe=  161 fps=0.7 q=26.6 size=     256KiB time=00:00:02.65 bitrate= 791.5kbits/s speed=0.0117x elapsed=0:03:47.12    \nframe=  162 fps=0.7 q=32.4 size=     256KiB time=00:00:02.66 bitrate= 786.6kbits/s speed=0.0117x elapsed=0:03:47.66    \nframe=  163 fps=0.7 q=33.2 size=     256KiB time=00:00:02.68 bitrate= 781.7kbits/s speed=0.0118x elapsed=0:03:48.20    \nframe=  164 fps=0.7 q=34.1 size=     256KiB time=00:00:02.70 bitrate= 776.9kbits/s speed=0.0118x elapsed=0:03:48.75    \nframe=  165 fps=0.7 q=34.2 size=     256KiB time=00:00:02.71 bitrate= 772.1kbits/s speed=0.0118x elapsed=0:03:49.29    \nframe=  165 fps=0.7 q=34.2 size=     256KiB time=00:00:02.71 bitrate= 772.1kbits/s speed=0.0118x elapsed=0:03:49.85    \nframe=  166 fps=0.7 q=27.2 size=     256KiB time=00:00:02.73 bitrate= 767.4kbits/s speed=0.0119x elapsed=0:03:50.46    \nframe=  166 fps=0.7 q=27.2 size=     256KiB time=00:00:02.73 bitrate= 767.4kbits/s speed=0.0118x elapsed=0:03:51.05    \nframe=  167 fps=0.7 q=33.4 size=     256KiB time=00:00:02.75 bitrate= 762.7kbits/s speed=0.0119x elapsed=0:03:51.58    \nframe=  167 fps=0.7 q=33.4 size=     256KiB time=00:00:02.75 bitrate= 762.7kbits/s speed=0.0118x elapsed=0:03:52.15    \nframe=  168 fps=0.7 q=34.3 size=     256KiB time=00:00:02.76 bitrate= 758.1kbits/s speed=0.0119x elapsed=0:03:52.72    \nframe=  168 fps=0.7 q=34.3 size=     256KiB time=00:00:02.76 bitrate= 758.1kbits/s speed=0.0119x elapsed=0:03:53.27    \nframe=  169 fps=0.7 q=33.2 size=     256KiB time=00:00:02.78 bitrate= 753.6kbits/s speed=0.0119x elapsed=0:03:53.80    \nframe=  170 fps=0.7 q=32.6 size=     256KiB time=00:00:02.80 bitrate= 749.1kbits/s speed=0.0119x elapsed=0:03:54.31    \nframe=  170 fps=0.7 q=32.6 size=     256KiB time=00:00:02.80 bitrate= 749.1kbits/s speed=0.0119x elapsed=0:03:54.86    \nframe=  170 fps=0.7 q=32.6 size=     256KiB time=00:00:02.80 bitrate= 749.1kbits/s speed=0.0119x elapsed=0:03:55.40    \nframe=  170 fps=0.7 q=32.6 size=     256KiB time=00:00:02.80 bitrate= 749.1kbits/s speed=0.0119x elapsed=0:03:55.93    \nframe=  170 fps=0.7 q=32.6 size=     256KiB time=00:00:02.80 bitrate= 749.1kbits/s speed=0.0118x elapsed=0:03:56.44    \nframe=  171 fps=0.7 q=26.1 size=     256KiB time=00:00:02.81 bitrate= 744.7kbits/s speed=0.0119x elapsed=0:03:56.96    \nframe=  171 fps=0.7 q=26.1 size=     256KiB time=00:00:02.81 bitrate= 744.7kbits/s speed=0.0119x elapsed=0:03:57.51    \nframe=  172 fps=0.7 q=32.3 size=     256KiB time=00:00:02.83 bitrate= 740.3kbits/s speed=0.0119x elapsed=0:03:58.06    \nframe=  173 fps=0.7 q=33.2 size=     256KiB time=00:00:02.85 bitrate= 736.0kbits/s speed=0.0119x elapsed=0:03:58.59    \nframe=  173 fps=0.7 q=33.2 size=     256KiB time=00:00:02.85 bitrate= 736.0kbits/s speed=0.0119x elapsed=0:03:59.14    \nframe=  173 fps=0.7 q=33.2 size=     256KiB time=00:00:02.85 bitrate= 736.0kbits/s speed=0.0119x elapsed=0:03:59.74    \nframe=  173 fps=0.7 q=33.2 size=     256KiB time=00:00:02.85 bitrate= 736.0kbits/s speed=0.0119x elapsed=0:04:00.27    \nframe=  173 fps=0.7 q=33.2 size=     256KiB time=00:00:02.85 bitrate= 736.0kbits/s speed=0.0118x elapsed=0:04:00.81    \nframe=  174 fps=0.7 q=33.2 size=     512KiB time=00:00:02.86 bitrate=1463.3kbits/s speed=0.0119x elapsed=0:04:01.33    \nframe=  174 fps=0.7 q=33.2 size=     512KiB time=00:00:02.86 bitrate=1463.3kbits/s speed=0.0118x elapsed=0:04:01.91    \nframe=  174 fps=0.7 q=33.2 size=     512KiB time=00:00:02.86 bitrate=1463.3kbits/s speed=0.0118x elapsed=0:04:02.52    \nframe=  174 fps=0.7 q=33.2 size=     512KiB time=00:00:02.86 bitrate=1463.3kbits/s speed=0.0118x elapsed=0:04:03.07    \nframe=  175 fps=0.7 q=32.5 size=     512KiB time=00:00:02.88 bitrate=1454.8kbits/s speed=0.0118x elapsed=0:04:03.60    \nframe=  175 fps=0.7 q=32.5 size=     512KiB time=00:00:02.88 bitrate=1454.8kbits/s speed=0.0118x elapsed=0:04:04.14    \nframe=  175 fps=0.7 q=32.5 size=     512KiB time=00:00:02.88 bitrate=1454.8kbits/s speed=0.0118x elapsed=0:04:04.70    \nframe=  175 fps=0.7 q=32.5 size=     512KiB time=00:00:02.88 bitrate=1454.8kbits/s speed=0.0118x elapsed=0:04:05.36    \nframe=  176 fps=0.7 q=25.8 size=     512KiB time=00:00:02.90 bitrate=1446.4kbits/s speed=0.0118x elapsed=0:04:05.94    \nframe=  176 fps=0.7 q=25.8 size=     512KiB time=00:00:02.90 bitrate=1446.4kbits/s speed=0.0118x elapsed=0:04:06.50    \nframe=  176 fps=0.7 q=25.8 size=     512KiB time=00:00:02.90 bitrate=1446.4kbits/s speed=0.0117x elapsed=0:04:07.04    \nframe=  178 fps=0.7 q=33.2 size=     512KiB time=00:00:02.93 bitrate=1430.0kbits/s speed=0.0118x elapsed=0:04:07.60    \nframe=  178 fps=0.7 q=33.2 size=     512KiB time=00:00:02.93 bitrate=1430.0kbits/s speed=0.0118x elapsed=0:04:08.12    \nframe=  178 fps=0.7 q=33.2 size=     512KiB time=00:00:02.93 bitrate=1430.0kbits/s speed=0.0118x elapsed=0:04:08.64    \nframe=  178 fps=0.7 q=33.2 size=     512KiB time=00:00:02.93 bitrate=1430.0kbits/s speed=0.0118x elapsed=0:04:09.21    \nframe=  178 fps=0.7 q=33.2 size=     512KiB time=00:00:02.93 bitrate=1430.0kbits/s speed=0.0117x elapsed=0:04:09.74    \nframe=  178 fps=0.7 q=33.2 size=     512KiB time=00:00:02.93 bitrate=1430.0kbits/s speed=0.0117x elapsed=0:04:10.29    \nframe=  178 fps=0.7 q=33.2 size=     512KiB time=00:00:02.93 bitrate=1430.0kbits/s speed=0.0117x elapsed=0:04:10.85    \nframe=  178 fps=0.7 q=33.2 size=     512KiB time=00:00:02.93 bitrate=1430.0kbits/s speed=0.0117x elapsed=0:04:11.41    \nframe=  178 fps=0.7 q=33.2 size=     512KiB time=00:00:02.93 bitrate=1430.0kbits/s speed=0.0116x elapsed=0:04:11.96    \nframe=  179 fps=0.7 q=32.5 size=     512KiB time=00:00:02.95 bitrate=1421.9kbits/s speed=0.0117x elapsed=0:04:12.53    \nframe=  179 fps=0.7 q=32.5 size=     512KiB time=00:00:02.95 bitrate=1421.9kbits/s speed=0.0117x elapsed=0:04:13.14    \nframe=  180 fps=0.7 q=32.5 size=     512KiB time=00:00:02.96 bitrate=1413.9kbits/s speed=0.0117x elapsed=0:04:13.70    \nframe=  182 fps=0.7 q=31.3 size=     512KiB time=00:00:03.00 bitrate=1398.2kbits/s speed=0.0118x elapsed=0:04:14.22    \nframe=  182 fps=0.7 q=31.3 size=     512KiB time=00:00:03.00 bitrate=1398.2kbits/s speed=0.0118x elapsed=0:04:14.72    \nframe=  182 fps=0.7 q=31.3 size=     512KiB time=00:00:03.00 bitrate=1398.2kbits/s speed=0.0118x elapsed=0:04:15.25    \nframe=  182 fps=0.7 q=31.3 size=     512KiB time=00:00:03.00 bitrate=1398.2kbits/s speed=0.0117x elapsed=0:04:15.78    \nframe=  183 fps=0.7 q=32.4 size=     512KiB time=00:00:03.01 bitrate=1390.5kbits/s speed=0.0118x elapsed=0:04:16.32    \nframe=  183 fps=0.7 q=32.4 size=     512KiB time=00:00:03.01 bitrate=1390.5kbits/s speed=0.0117x elapsed=0:04:16.86    \nframe=  183 fps=0.7 q=32.4 size=     512KiB time=00:00:03.01 bitrate=1390.5kbits/s speed=0.0117x elapsed=0:04:17.40    \nframe=  183 fps=0.7 q=32.4 size=     512KiB time=00:00:03.01 bitrate=1390.5kbits/s speed=0.0117x elapsed=0:04:17.95    \nframe=  184 fps=0.7 q=33.2 size=     512KiB time=00:00:03.03 bitrate=1382.9kbits/s speed=0.0117x elapsed=0:04:18.47    \nframe=  184 fps=0.7 q=33.2 size=     512KiB time=00:00:03.03 bitrate=1382.9kbits/s speed=0.0117x elapsed=0:04:18.99    \nframe=  184 fps=0.7 q=33.2 size=     512KiB time=00:00:03.03 bitrate=1382.9kbits/s speed=0.0117x elapsed=0:04:19.52    \nframe=  185 fps=0.7 q=33.2 size=     512KiB time=00:00:03.05 bitrate=1375.3kbits/s speed=0.0117x elapsed=0:04:20.04    \nframe=  186 fps=0.7 q=27.6 size=     512KiB time=00:00:03.06 bitrate=1367.8kbits/s speed=0.0118x elapsed=0:04:20.56    \nframe=  187 fps=0.7 q=32.1 size=     512KiB time=00:00:03.08 bitrate=1360.4kbits/s speed=0.0118x elapsed=0:04:21.07    \nframe=  188 fps=0.7 q=33.3 size=     512KiB time=00:00:03.10 bitrate=1353.1kbits/s speed=0.0119x elapsed=0:04:21.59    \nframe=  188 fps=0.7 q=33.3 size=     512KiB time=00:00:03.10 bitrate=1353.1kbits/s speed=0.0118x elapsed=0:04:22.09    \nframe=  188 fps=0.7 q=33.3 size=     512KiB time=00:00:03.10 bitrate=1353.1kbits/s speed=0.0118x elapsed=0:04:22.62    \nframe=  189 fps=0.7 q=33.3 size=     512KiB time=00:00:03.11 bitrate=1345.9kbits/s speed=0.0118x elapsed=0:04:23.17    \nframe=  190 fps=0.7 q=34.1 size=     512KiB time=00:00:03.13 bitrate=1338.7kbits/s speed=0.0119x elapsed=0:04:23.69    \nframe=  192 fps=0.7 q=34.0 size=     512KiB time=00:00:03.16 bitrate=1324.6kbits/s speed=0.012x elapsed=0:04:24.21    \nframe=  192 fps=0.7 q=34.0 size=     512KiB time=00:00:03.16 bitrate=1324.6kbits/s speed=0.012x elapsed=0:04:24.72    \nframe=  193 fps=0.7 q=34.3 size=     512KiB time=00:00:03.18 bitrate=1317.7kbits/s speed=0.012x elapsed=0:04:25.25    \nframe=  194 fps=0.7 q=34.4 size=     512KiB time=00:00:03.20 bitrate=1310.8kbits/s speed=0.012x elapsed=0:04:25.78    \nframe=  194 fps=0.7 q=34.4 size=     512KiB time=00:00:03.20 bitrate=1310.8kbits/s speed=0.012x elapsed=0:04:26.28    \nframe=  195 fps=0.7 q=35.4 size=     512KiB time=00:00:03.21 bitrate=1304.0kbits/s speed=0.0121x elapsed=0:04:26.80    \nframe=  195 fps=0.7 q=35.4 size=     512KiB time=00:00:03.21 bitrate=1304.0kbits/s speed=0.012x elapsed=0:04:27.32    \nframe=  196 fps=0.7 q=31.8 size=     512KiB time=00:00:03.23 bitrate=1297.3kbits/s speed=0.0121x elapsed=0:04:27.84    \nframe=  197 fps=0.7 q=33.8 size=     512KiB time=00:00:03.25 bitrate=1290.7kbits/s speed=0.0121x elapsed=0:04:28.35    \nframe=  198 fps=0.7 q=35.2 size=     512KiB time=00:00:03.26 bitrate=1284.1kbits/s speed=0.0121x elapsed=0:04:28.88    \nframe=  199 fps=0.7 q=34.3 size=     512KiB time=00:00:03.28 bitrate=1277.6kbits/s speed=0.0122x elapsed=0:04:29.40    \nframe=  200 fps=0.7 q=28.2 size=     512KiB time=00:00:03.30 bitrate=1271.1kbits/s speed=0.0122x elapsed=0:04:29.92    \nframe=  200 fps=0.7 q=28.2 size=     512KiB time=00:00:03.30 bitrate=1271.1kbits/s speed=0.0122x elapsed=0:04:30.45    \nframe=  202 fps=0.7 q=35.0 size=     512KiB time=00:00:03.33 bitrate=1258.4kbits/s speed=0.0123x elapsed=0:04:30.97    \nframe=  203 fps=0.7 q=34.3 size=     512KiB time=00:00:03.35 bitrate=1252.1kbits/s speed=0.0123x elapsed=0:04:31.50    \nframe=  204 fps=0.7 q=34.3 size=     512KiB time=00:00:03.36 bitrate=1245.9kbits/s speed=0.0124x elapsed=0:04:32.00    \nframe=  205 fps=0.8 q=29.3 size=     512KiB time=00:00:03.38 bitrate=1239.8kbits/s speed=0.0124x elapsed=0:04:32.54    \nframe=  206 fps=0.8 q=32.5 size=     512KiB time=00:00:03.40 bitrate=1233.7kbits/s speed=0.0125x elapsed=0:04:33.07    \nframe=  207 fps=0.8 q=34.2 size=     512KiB time=00:00:03.40 bitrate=1233.7kbits/s speed=0.0124x elapsed=0:04:33.58    \nframe=  208 fps=0.8 q=34.2 size=     512KiB time=00:00:03.43 bitrate=1221.7kbits/s speed=0.0125x elapsed=0:04:34.10    \nframe=  209 fps=0.8 q=34.5 size=     512KiB time=00:00:03.45 bitrate=1215.8kbits/s speed=0.0126x elapsed=0:04:34.62    \nframe=  210 fps=0.8 q=31.1 size=     512KiB time=00:00:03.46 bitrate=1210.0kbits/s speed=0.0126x elapsed=0:04:35.15    \nframe=  211 fps=0.8 q=33.4 size=     512KiB time=00:00:03.48 bitrate=1204.2kbits/s speed=0.0126x elapsed=0:04:35.68    \nframe=  212 fps=0.8 q=35.2 size=     512KiB time=00:00:03.50 bitrate=1198.5kbits/s speed=0.0127x elapsed=0:04:36.22    \nframe=  213 fps=0.8 q=34.4 size=     512KiB time=00:00:03.51 bitrate=1192.8kbits/s speed=0.0127x elapsed=0:04:36.74    \nframe=  213 fps=0.8 q=34.4 size=     512KiB time=00:00:03.51 bitrate=1192.8kbits/s speed=0.0127x elapsed=0:04:37.30    \nframe=  214 fps=0.8 q=34.3 size=     512KiB time=00:00:03.53 bitrate=1187.2kbits/s speed=0.0127x elapsed=0:04:37.84    \nframe=  214 fps=0.8 q=34.3 size=     512KiB time=00:00:03.53 bitrate=1187.2kbits/s speed=0.0127x elapsed=0:04:38.37    \nframe=  214 fps=0.8 q=34.3 size=     512KiB time=00:00:03.53 bitrate=1187.2kbits/s speed=0.0127x elapsed=0:04:38.88    \nframe=  214 fps=0.8 q=34.3 size=     512KiB time=00:00:03.53 bitrate=1187.2kbits/s speed=0.0126x elapsed=0:04:39.42    \nframe=  215 fps=0.8 q=27.2 size=     512KiB time=00:00:03.55 bitrate=1181.6kbits/s speed=0.0127x elapsed=0:04:39.94    \nframe=  216 fps=0.8 q=32.5 size=     512KiB time=00:00:03.56 bitrate=1176.1kbits/s speed=0.0127x elapsed=0:04:40.47    \nframe=  216 fps=0.8 q=32.5 size=     512KiB time=00:00:03.56 bitrate=1176.1kbits/s speed=0.0127x elapsed=0:04:40.99    \nframe=  216 fps=0.8 q=32.5 size=     512KiB time=00:00:03.56 bitrate=1176.1kbits/s speed=0.0127x elapsed=0:04:41.51    \nframe=  217 fps=0.8 q=34.3 size=     512KiB time=00:00:03.58 bitrate=1170.6kbits/s speed=0.0127x elapsed=0:04:42.02    \nframe=  218 fps=0.8 q=34.3 size=     512KiB time=00:00:03.60 bitrate=1165.2kbits/s speed=0.0127x elapsed=0:04:42.55    \nframe=  218 fps=0.8 q=34.3 size=     512KiB time=00:00:03.60 bitrate=1165.2kbits/s speed=0.0127x elapsed=0:04:43.07    \nframe=  219 fps=0.8 q=34.3 size=     512KiB time=00:00:03.61 bitrate=1159.8kbits/s speed=0.0128x elapsed=0:04:43.59    \nframe=  219 fps=0.8 q=34.3 size=     512KiB time=00:00:03.61 bitrate=1159.8kbits/s speed=0.0127x elapsed=0:04:44.10    \nframe=  219 fps=0.8 q=34.3 size=     512KiB time=00:00:03.61 bitrate=1159.8kbits/s speed=0.0127x elapsed=0:04:44.62    \nframe=  220 fps=0.8 q=31.5 size=     512KiB time=00:00:03.63 bitrate=1154.5kbits/s speed=0.0127x elapsed=0:04:45.17    \nframe=  220 fps=0.8 q=31.5 size=     512KiB time=00:00:03.63 bitrate=1154.5kbits/s speed=0.0127x elapsed=0:04:45.69    \nframe=  220 fps=0.8 q=31.5 size=     512KiB time=00:00:03.63 bitrate=1154.5kbits/s speed=0.0127x elapsed=0:04:46.22    \nframe=  221 fps=0.8 q=33.3 size=     512KiB time=00:00:03.65 bitrate=1149.2kbits/s speed=0.0127x elapsed=0:04:46.75    \nframe=  222 fps=0.8 q=34.2 size=     512KiB time=00:00:03.66 bitrate=1144.0kbits/s speed=0.0128x elapsed=0:04:47.27    \nframe=  224 fps=0.8 q=34.6 size=     512KiB time=00:00:03.70 bitrate=1133.7kbits/s speed=0.0129x elapsed=0:04:47.81    \nframe=  224 fps=0.8 q=34.6 size=     512KiB time=00:00:03.70 bitrate=1133.7kbits/s speed=0.0128x elapsed=0:04:48.34    \nframe=  225 fps=0.8 q=31.0 size=     512KiB time=00:00:03.71 bitrate=1128.6kbits/s speed=0.0129x elapsed=0:04:48.86    \nframe=  225 fps=0.8 q=31.0 size=     512KiB time=00:00:03.71 bitrate=1128.6kbits/s speed=0.0128x elapsed=0:04:49.42    \nframe=  225 fps=0.8 q=31.0 size=     512KiB time=00:00:03.71 bitrate=1128.6kbits/s speed=0.0128x elapsed=0:04:49.94    \nframe=  225 fps=0.8 q=31.0 size=     512KiB time=00:00:03.71 bitrate=1128.6kbits/s speed=0.0128x elapsed=0:04:50.47    \nframe=  227 fps=0.8 q=35.3 size=     512KiB time=00:00:03.75 bitrate=1118.6kbits/s speed=0.0129x elapsed=0:04:51.00    \nframe=  228 fps=0.8 q=34.3 size=     512KiB time=00:00:03.76 bitrate=1113.6kbits/s speed=0.0129x elapsed=0:04:51.52    \nframe=  229 fps=0.8 q=34.3 size=     512KiB time=00:00:03.78 bitrate=1108.7kbits/s speed=0.013x elapsed=0:04:52.04    \nframe=  230 fps=0.8 q=33.0 size=     512KiB time=00:00:03.80 bitrate=1103.9kbits/s speed=0.013x elapsed=0:04:52.57    \nframe=  231 fps=0.8 q=34.3 size=     512KiB time=00:00:03.81 bitrate=1099.0kbits/s speed=0.013x elapsed=0:04:53.08    \nframe=  232 fps=0.8 q=35.3 size=     512KiB time=00:00:03.83 bitrate=1094.3kbits/s speed=0.0131x elapsed=0:04:53.60    \nframe=  233 fps=0.8 q=35.4 size=     512KiB time=00:00:03.85 bitrate=1089.5kbits/s speed=0.0131x elapsed=0:04:54.12    \nframe=  233 fps=0.8 q=35.4 size=     512KiB time=00:00:03.85 bitrate=1089.5kbits/s speed=0.0131x elapsed=0:04:54.67    \nframe=  234 fps=0.8 q=36.3 size=     512KiB time=00:00:03.86 bitrate=1084.8kbits/s speed=0.0131x elapsed=0:04:55.19    \nframe=  236 fps=0.8 q=34.8 size=     512KiB time=00:00:03.90 bitrate=1075.6kbits/s speed=0.0132x elapsed=0:04:55.73    \nframe=  236 fps=0.8 q=34.8 size=     512KiB time=00:00:03.90 bitrate=1075.6kbits/s speed=0.0132x elapsed=0:04:56.26    \nframe=  236 fps=0.8 q=34.8 size=     512KiB time=00:00:03.90 bitrate=1075.6kbits/s speed=0.0131x elapsed=0:04:56.77    \nframe=  236 fps=0.8 q=34.8 size=     512KiB time=00:00:03.90 bitrate=1075.6kbits/s speed=0.0131x elapsed=0:04:57.28    \nframe=  239 fps=0.8 q=35.1 size=     512KiB time=00:00:03.95 bitrate=1061.9kbits/s speed=0.0133x elapsed=0:04:57.81    \nframe=  240 fps=0.8 q=36.3 size=     512KiB time=00:00:03.96 bitrate=1057.5kbits/s speed=0.0133x elapsed=0:04:58.35    \nframe=  240 fps=0.8 q=36.3 size=     512KiB time=00:00:03.96 bitrate=1057.5kbits/s speed=0.0133x elapsed=0:04:58.87    \nframe=  241 fps=0.8 q=36.2 size=     512KiB time=00:00:03.98 bitrate=1053.1kbits/s speed=0.0133x elapsed=0:04:59.40    \nframe=  241 fps=0.8 q=36.2 size=     512KiB time=00:00:03.98 bitrate=1053.1kbits/s speed=0.0133x elapsed=0:04:59.93    \nframe=  242 fps=0.8 q=36.3 size=     512KiB time=00:00:04.00 bitrate=1048.7kbits/s speed=0.0133x elapsed=0:05:00.48    \nframe=  242 fps=0.8 q=36.3 size=     512KiB time=00:00:04.00 bitrate=1048.7kbits/s speed=0.0133x elapsed=0:05:01.02    \nframe=  242 fps=0.8 q=36.3 size=     512KiB time=00:00:04.00 bitrate=1048.7kbits/s speed=0.0133x elapsed=0:05:01.53    \nframe=  243 fps=0.8 q=31.4 size=     512KiB time=00:00:04.01 bitrate=1044.3kbits/s speed=0.0133x elapsed=0:05:02.08    \nframe=  244 fps=0.8 q=34.4 size=     512KiB time=00:00:04.03 bitrate=1040.0kbits/s speed=0.0133x elapsed=0:05:02.58    \nframe=  245 fps=0.8 q=36.2 size=     512KiB time=00:00:04.05 bitrate=1035.7kbits/s speed=0.0134x elapsed=0:05:03.11    \nframe=  246 fps=0.8 q=36.1 size=     512KiB time=00:00:04.06 bitrate=1031.5kbits/s speed=0.0134x elapsed=0:05:03.66    \nframe=  246 fps=0.8 q=36.1 size=     512KiB time=00:00:04.06 bitrate=1031.5kbits/s speed=0.0134x elapsed=0:05:04.20    \nframe=  246 fps=0.8 q=36.1 size=     512KiB time=00:00:04.06 bitrate=1031.5kbits/s speed=0.0133x elapsed=0:05:04.75    \nframe=  246 fps=0.8 q=36.1 size=     512KiB time=00:00:04.06 bitrate=1031.5kbits/s speed=0.0133x elapsed=0:05:05.34    \nframe=  246 fps=0.8 q=36.1 size=     512KiB time=00:00:04.06 bitrate=1031.5kbits/s speed=0.0133x elapsed=0:05:05.90    \nframe=  246 fps=0.8 q=36.1 size=     512KiB time=00:00:04.06 bitrate=1031.5kbits/s speed=0.0133x elapsed=0:05:06.49    \nframe=  247 fps=0.8 q=35.6 size=     512KiB time=00:00:04.06 bitrate=1031.5kbits/s speed=0.0132x elapsed=0:05:07.05    \nframe=  247 fps=0.8 q=35.6 size=     512KiB time=00:00:04.08 bitrate=1027.3kbits/s speed=0.0133x elapsed=0:05:07.59    \nframe=  247 fps=0.8 q=35.6 size=     512KiB time=00:00:04.08 bitrate=1027.3kbits/s speed=0.0133x elapsed=0:05:08.12    \nframe=  248 fps=0.8 q=25.7 size=     512KiB time=00:00:04.10 bitrate=1023.1kbits/s speed=0.0133x elapsed=0:05:08.64    \nframe=  248 fps=0.8 q=25.7 size=     512KiB time=00:00:04.10 bitrate=1023.1kbits/s speed=0.0133x elapsed=0:05:09.16    \nframe=  248 fps=0.8 q=25.7 size=     512KiB time=00:00:04.10 bitrate=1023.1kbits/s speed=0.0132x elapsed=0:05:09.69    \nframe=  248 fps=0.8 q=25.7 size=     512KiB time=00:00:04.10 bitrate=1023.1kbits/s speed=0.0132x elapsed=0:05:10.23    \nframe=  248 fps=0.8 q=25.7 size=     512KiB time=00:00:04.10 bitrate=1023.1kbits/s speed=0.0132x elapsed=0:05:10.78    \nframe=  248 fps=0.8 q=25.7 size=     512KiB time=00:00:04.10 bitrate=1023.1kbits/s speed=0.0132x elapsed=0:05:11.35    \nframe=  248 fps=0.8 q=25.7 size=     512KiB time=00:00:04.10 bitrate=1023.1kbits/s speed=0.0131x elapsed=0:05:11.93    \nframe=  249 fps=0.8 q=34.5 size=     768KiB time=00:00:04.11 bitrate=1528.4kbits/s speed=0.0132x elapsed=0:05:12.50    \nframe=  250 fps=0.8 q=36.3 size=     768KiB time=00:00:04.13 bitrate=1522.2kbits/s speed=0.0132x elapsed=0:05:13.01    \nframe=  251 fps=0.8 q=36.4 size=     768KiB time=00:00:04.13 bitrate=1522.2kbits/s speed=0.0132x elapsed=0:05:13.54    \nframe=  251 fps=0.8 q=36.4 size=     768KiB time=00:00:04.15 bitrate=1516.1kbits/s speed=0.0132x elapsed=0:05:14.12    \nframe=  251 fps=0.8 q=36.4 size=     768KiB time=00:00:04.15 bitrate=1516.1kbits/s speed=0.0132x elapsed=0:05:14.69    \nframe=  251 fps=0.8 q=36.4 size=     768KiB time=00:00:04.15 bitrate=1516.1kbits/s speed=0.0132x elapsed=0:05:15.24    \nframe=  251 fps=0.8 q=36.4 size=     768KiB time=00:00:04.15 bitrate=1516.1kbits/s speed=0.0131x elapsed=0:05:15.83    \nframe=  253 fps=0.8 q=34.7 size=     768KiB time=00:00:04.18 bitrate=1504.0kbits/s speed=0.0132x elapsed=0:05:16.35    \nframe=  254 fps=0.8 q=36.4 size=     768KiB time=00:00:04.20 bitrate=1498.0kbits/s speed=0.0133x elapsed=0:05:16.88    \nframe=  255 fps=0.8 q=36.4 size=     768KiB time=00:00:04.21 bitrate=1492.1kbits/s speed=0.0133x elapsed=0:05:17.40    \nframe=  255 fps=0.8 q=36.4 size=     768KiB time=00:00:04.21 bitrate=1492.1kbits/s speed=0.0133x elapsed=0:05:17.97    \nframe=  255 fps=0.8 q=36.4 size=     768KiB time=00:00:04.21 bitrate=1492.1kbits/s speed=0.0132x elapsed=0:05:18.51    \nframe=  256 fps=0.8 q=36.5 size=     768KiB time=00:00:04.23 bitrate=1486.3kbits/s speed=0.0133x elapsed=0:05:19.02    \nframe=  257 fps=0.8 q=30.4 size=     768KiB time=00:00:04.25 bitrate=1480.4kbits/s speed=0.0133x elapsed=0:05:19.55    \nframe=  258 fps=0.8 q=34.6 size=     768KiB time=00:00:04.26 bitrate=1474.6kbits/s speed=0.0133x elapsed=0:05:20.07    \nframe=  258 fps=0.8 q=34.6 size=     768KiB time=00:00:04.26 bitrate=1474.6kbits/s speed=0.0133x elapsed=0:05:20.62    \nframe=  259 fps=0.8 q=36.4 size=     768KiB time=00:00:04.28 bitrate=1468.9kbits/s speed=0.0133x elapsed=0:05:21.12    \nframe=  261 fps=0.8 q=36.4 size=     768KiB time=00:00:04.31 bitrate=1457.6kbits/s speed=0.0134x elapsed=0:05:21.65    \nframe=  261 fps=0.8 q=36.4 size=     768KiB time=00:00:04.31 bitrate=1457.6kbits/s speed=0.0134x elapsed=0:05:22.16    \nframe=  261 fps=0.8 q=36.4 size=     768KiB time=00:00:04.31 bitrate=1457.6kbits/s speed=0.0134x elapsed=0:05:22.69    \nframe=  262 fps=0.8 q=32.5 size=     768KiB time=00:00:04.33 bitrate=1452.0kbits/s speed=0.0134x elapsed=0:05:23.21    \nframe=  264 fps=0.8 q=36.5 size=     768KiB time=00:00:04.36 bitrate=1440.9kbits/s speed=0.0135x elapsed=0:05:23.73    \nframe=  265 fps=0.8 q=36.4 size=     768KiB time=00:00:04.38 bitrate=1435.4kbits/s speed=0.0135x elapsed=0:05:24.25    \nframe=  265 fps=0.8 q=36.4 size=     768KiB time=00:00:04.38 bitrate=1435.4kbits/s speed=0.0135x elapsed=0:05:24.78    \nframe=  265 fps=0.8 q=36.4 size=     768KiB time=00:00:04.38 bitrate=1435.4kbits/s speed=0.0135x elapsed=0:05:25.32    \nframe=  266 fps=0.8 q=36.4 size=     768KiB time=00:00:04.40 bitrate=1430.0kbits/s speed=0.0135x elapsed=0:05:25.84    \nframe=  267 fps=0.8 q=31.2 size=     768KiB time=00:00:04.41 bitrate=1424.6kbits/s speed=0.0135x elapsed=0:05:26.36    \nframe=  268 fps=0.8 q=34.7 size=     768KiB time=00:00:04.43 bitrate=1419.2kbits/s speed=0.0136x elapsed=0:05:26.88    \nframe=  269 fps=0.8 q=36.4 size=     768KiB time=00:00:04.45 bitrate=1413.9kbits/s speed=0.0136x elapsed=0:05:27.44    \nframe=  270 fps=0.8 q=36.4 size=     768KiB time=00:00:04.46 bitrate=1408.6kbits/s speed=0.0136x elapsed=0:05:27.94    \nframe=  271 fps=0.8 q=36.4 size=     768KiB time=00:00:04.48 bitrate=1403.4kbits/s speed=0.0136x elapsed=0:05:28.46    \nframe=  273 fps=0.8 q=35.2 size=     768KiB time=00:00:04.51 bitrate=1393.0kbits/s speed=0.0137x elapsed=0:05:28.98    \nframe=  273 fps=0.8 q=35.2 size=     768KiB time=00:00:04.51 bitrate=1393.0kbits/s speed=0.0137x elapsed=0:05:29.51    \nframe=  273 fps=0.8 q=35.2 size=     768KiB time=00:00:04.51 bitrate=1393.0kbits/s speed=0.0137x elapsed=0:05:30.05    \nframe=  275 fps=0.8 q=36.4 size=     768KiB time=00:00:04.55 bitrate=1382.8kbits/s speed=0.0138x elapsed=0:05:30.57    \nframe=  276 fps=0.8 q=36.3 size=     768KiB time=00:00:04.56 bitrate=1377.8kbits/s speed=0.0138x elapsed=0:05:31.10    \nframe=  276 fps=0.8 q=36.3 size=     768KiB time=00:00:04.56 bitrate=1377.8kbits/s speed=0.0138x elapsed=0:05:31.64    \nframe=  278 fps=0.8 q=35.3 size=     768KiB time=00:00:04.60 bitrate=1367.8kbits/s speed=0.0138x elapsed=0:05:32.17    \nframe=  279 fps=0.8 q=36.4 size=     768KiB time=00:00:04.61 bitrate=1362.8kbits/s speed=0.0139x elapsed=0:05:32.69    \nframe=  279 fps=0.8 q=36.4 size=     768KiB time=00:00:04.61 bitrate=1362.8kbits/s speed=0.0139x elapsed=0:05:33.24    \nframe=  280 fps=0.8 q=36.3 size=     768KiB time=00:00:04.63 bitrate=1357.9kbits/s speed=0.0139x elapsed=0:05:33.79    \nframe=  281 fps=0.8 q=36.4 size=     768KiB time=00:00:04.65 bitrate=1353.1kbits/s speed=0.0139x elapsed=0:05:34.31    \nframe=  281 fps=0.8 q=36.4 size=     768KiB time=00:00:04.65 bitrate=1353.1kbits/s speed=0.0139x elapsed=0:05:34.83    \nframe=  282 fps=0.8 q=31.8 size=     768KiB time=00:00:04.66 bitrate=1348.2kbits/s speed=0.0139x elapsed=0:05:35.35    \nframe=  283 fps=0.8 q=35.2 size=     768KiB time=00:00:04.68 bitrate=1343.4kbits/s speed=0.0139x elapsed=0:05:35.89    \nframe=  284 fps=0.8 q=36.5 size=     768KiB time=00:00:04.70 bitrate=1338.7kbits/s speed=0.014x elapsed=0:05:36.42    \nframe=  285 fps=0.8 q=36.4 size=     768KiB time=00:00:04.71 bitrate=1334.0kbits/s speed=0.014x elapsed=0:05:36.93    \nframe=  285 fps=0.8 q=36.4 size=     768KiB time=00:00:04.71 bitrate=1334.0kbits/s speed=0.014x elapsed=0:05:37.44    \nframe=  285 fps=0.8 q=36.4 size=     768KiB time=00:00:04.71 bitrate=1334.0kbits/s speed=0.014x elapsed=0:05:37.98    \nframe=  287 fps=0.8 q=33.0 size=     768KiB time=00:00:04.75 bitrate=1324.6kbits/s speed=0.014x elapsed=0:05:38.50    \nframe=  288 fps=0.8 q=35.2 size=     768KiB time=00:00:04.76 bitrate=1320.0kbits/s speed=0.0141x elapsed=0:05:39.03    \nframe=  288 fps=0.8 q=35.2 size=     768KiB time=00:00:04.76 bitrate=1320.0kbits/s speed=0.014x elapsed=0:05:39.57    \nframe=  289 fps=0.8 q=36.3 size=     768KiB time=00:00:04.78 bitrate=1315.4kbits/s speed=0.0141x elapsed=0:05:40.08    \nframe=  290 fps=0.9 q=36.4 size=     768KiB time=00:00:04.80 bitrate=1310.8kbits/s speed=0.0141x elapsed=0:05:40.61    \nframe=  291 fps=0.9 q=36.5 size=     768KiB time=00:00:04.81 bitrate=1306.3kbits/s speed=0.0141x elapsed=0:05:41.12    \nframe=  291 fps=0.9 q=36.5 size=     768KiB time=00:00:04.81 bitrate=1306.3kbits/s speed=0.0141x elapsed=0:05:41.67    \nframe=  292 fps=0.9 q=33.3 size=     768KiB time=00:00:04.83 bitrate=1301.8kbits/s speed=0.0141x elapsed=0:05:42.22    \nframe=  293 fps=0.9 q=35.2 size=     768KiB time=00:00:04.85 bitrate=1297.3kbits/s speed=0.0142x elapsed=0:05:42.75    \nframe=  295 fps=0.9 q=36.3 size=     768KiB time=00:00:04.88 bitrate=1288.4kbits/s speed=0.0142x elapsed=0:05:43.26    \nframe=  295 fps=0.9 q=36.3 size=     768KiB time=00:00:04.88 bitrate=1288.4kbits/s speed=0.0142x elapsed=0:05:43.79    \nframe=  296 fps=0.9 q=36.4 size=     768KiB time=00:00:04.90 bitrate=1284.0kbits/s speed=0.0142x elapsed=0:05:44.31    \nframe=  296 fps=0.9 q=36.4 size=     768KiB time=00:00:04.90 bitrate=1284.0kbits/s speed=0.0142x elapsed=0:05:44.81    \nframe=  297 fps=0.9 q=34.1 size=     768KiB time=00:00:04.91 bitrate=1279.7kbits/s speed=0.0142x elapsed=0:05:45.35    \nframe=  297 fps=0.9 q=34.1 size=     768KiB time=00:00:04.91 bitrate=1279.7kbits/s speed=0.0142x elapsed=0:05:45.89    \n[mp4 @ 00000213a65bab40] Starting second pass: moving the moov atom to the beginning of the file\n[out#0/mp4 @ 00000213a65baa40] video:907KiB audio:0KiB subtitle:0KiB other streams:0KiB global headers:2KiB muxing overhead: 0.739970%\nframe=  300 fps=0.9 q=36.5 Lsize=     914KiB time=00:00:04.96 bitrate=1507.4kbits/s speed=0.0143x elapsed=0:05:46.26    \nx265 [info]: frame I:      2, Avg QP:32.81  kb/s: 17188.08\nx265 [info]: frame P:     62, Avg QP:30.73  kb/s: 3266.79 \nx265 [info]: frame B:    236, Avg QP:35.51  kb/s: 883.07  \nx265 [info]: Weighted P-Frames: Y:0.0% UV:0.0%\n\nencoded 300 frames in 345.82s (0.87 fps), 1484.41 kb/s, Avg QP:34.51\n",
  "seconds": 346.58001232147217,
  "probe_out": {}
}